<svg width="4" height="5" viewBox="0 0 4 5" fill="none" xmlns="http://www.w3.org/2000/svg">
<path d="M3.60723 2.11056L1.56977 0.0731424C1.52265 0.0259814 1.45974 0 1.39267 0C1.32559 0 1.26269 0.0259814 1.21556 0.0731424L1.06552 0.22315C0.967884 0.320896 0.967884 0.479762 1.06552 0.57736L2.77642 2.28826L1.06362 4.00106C1.0165 4.04822 0.990479 4.11109 0.990479 4.17813C0.990479 4.24524 1.0165 4.30811 1.06362 4.35531L1.21367 4.50528C1.26083 4.55244 1.3237 4.57842 1.39077 4.57842C1.45785 4.57842 1.52075 4.55244 1.56788 4.50528L3.60723 2.466C3.65446 2.41869 3.68041 2.35552 3.68026 2.28837C3.68041 2.22096 3.65446 2.15783 3.60723 2.11056Z" fill="white"/>
</svg>
