<svg width="4" height="5" viewBox="0 0 4 5" fill="none" xmlns="http://www.w3.org/2000/svg">
<path d="M1.06366 2.46786L3.10112 4.50529C3.14825 4.55245 3.21115 4.57843 3.27823 4.57843C3.3453 4.57843 3.40821 4.55245 3.45533 4.50529L3.60538 4.35528C3.70301 4.25753 3.70301 4.09867 3.60538 4.00107L1.89447 2.29016L3.60728 0.577351C3.6544 0.530189 3.68042 0.467319 3.68042 0.400281C3.68042 0.333169 3.6544 0.270299 3.60728 0.223101L3.45723 0.0731302C3.41007 0.0259686 3.3472 -1.28455e-05 3.28013 -1.28396e-05C3.21305 -1.28337e-05 3.15014 0.0259686 3.10302 0.0731302L1.06366 2.11242C1.01642 2.15973 0.990475 2.2229 0.990624 2.29005C0.990475 2.35746 1.01642 2.42059 1.06366 2.46786Z" fill="#1AE5BD"/>
</svg>
