<svg width="36" height="20" viewBox="0 0 36 20" fill="none" xmlns="http://www.w3.org/2000/svg">
<path d="M19.1385 19.3353L34.4758 4.28044C34.8308 3.93224 35.0264 3.46742 35.0264 2.9718C35.0264 2.47618 34.8308 2.01136 34.4758 1.66316L33.3465 0.55448C32.6107 -0.166949 31.4148 -0.166949 30.6801 0.55448L17.8008 13.1964L4.90718 0.540452C4.55216 0.192251 4.0789 -1.32782e-06 3.57425 -1.34947e-06C3.06904 -1.37115e-06 2.59577 0.192251 2.24047 0.540451L1.11153 1.64914C0.756511 1.99761 0.560929 2.46215 0.560929 2.95777C0.560929 3.4534 0.756511 3.91821 1.11153 4.26641L16.4628 19.3353C16.819 19.6843 17.2945 19.876 17.8 19.8749C18.3074 19.876 18.7826 19.6843 19.1385 19.3353Z" fill="#c9c9c9"/>
</svg>
