<svg width="17" height="17" viewBox="0 0 17 17" fill="none" xmlns="http://www.w3.org/2000/svg">
<g clip-path="url(#clip0)">
<path d="M4.95898 14.3436C4.95898 14.9071 5.18285 15.4476 5.58132 15.8461C5.9798 16.2446 6.52025 16.4685 7.08378 16.4685C7.64731 16.4685 8.18776 16.2446 8.58623 15.8461C8.98471 15.4476 9.20857 14.9071 9.20857 14.3436H4.95898Z" fill="#D5DBE1"/>
<path d="M11.5109 7.08365V9.05843C11.511 9.82643 11.6786 10.5852 12.002 11.2818C12.3254 11.9784 12.7968 12.596 13.3833 13.0918V13.0918H13.3866C13.4967 13.1857 13.5753 13.3112 13.6119 13.4512C13.6484 13.5913 13.6411 13.7392 13.5909 13.875C13.5407 14.0108 13.4501 14.1279 13.3313 14.2105C13.2124 14.2931 13.0711 14.3373 12.9264 14.337H1.24162C1.09688 14.3373 0.955547 14.2931 0.836705 14.2105C0.717864 14.1279 0.627234 14.0108 0.577057 13.875C0.526879 13.7392 0.519571 13.5913 0.556115 13.4512C0.592658 13.3112 0.671293 13.1857 0.781407 13.0918H0.784669C1.3713 12.596 1.84277 11.9782 2.16624 11.2815C2.4897 10.5848 2.65739 9.826 2.6576 9.05789V7.0831C2.6576 5.90907 3.12395 4.78314 3.95406 3.95297C4.78417 3.12281 5.91004 2.65643 7.08399 2.65643C8.25794 2.65643 9.38381 3.12281 10.2139 3.95297C11.044 4.78314 11.5104 5.90907 11.5104 7.0831L11.5109 7.08365Z" fill="#F3F3F1"/>
<path d="M2.12602 13.6352C2.12606 13.5328 2.14836 13.4315 2.19138 13.3385C2.2344 13.2455 2.2971 13.163 2.37516 13.0966H2.37843C2.96506 12.6008 3.43653 11.9831 3.76 11.2864C4.08346 10.5897 4.25115 9.83087 4.25136 9.06275V7.08633C4.25179 6.05082 4.61525 5.04824 5.2785 4.25305C5.94175 3.45786 6.86279 2.9204 7.88136 2.73419C7.61844 2.68581 7.35175 2.66087 7.08442 2.65967C6.5031 2.65967 5.92746 2.77419 5.39039 2.99668C4.85332 3.21918 4.36534 3.54529 3.9543 3.9564C3.54327 4.36751 3.21723 4.85556 2.99482 5.3927C2.7724 5.92983 2.65797 6.50552 2.65804 7.08688V9.06112C2.65792 9.82912 2.49033 10.5879 2.16695 11.2844C1.84358 11.981 1.37219 12.5987 0.785648 13.0945H0.782386C0.672273 13.1884 0.593633 13.3139 0.55709 13.4539C0.520546 13.594 0.527858 13.7419 0.578036 13.8777C0.628213 14.0134 0.718839 14.1306 0.83768 14.2132C0.956522 14.2958 1.09785 14.34 1.24259 14.3397H2.83592C2.64858 14.3397 2.46883 14.2657 2.33586 14.1337C2.20288 14.0017 2.12746 13.8226 2.12602 13.6352V13.6352Z" fill="#D5DBE1"/>
<path d="M7.08303 17C6.37881 16.9992 5.70368 16.719 5.20572 16.221C4.70776 15.723 4.42762 15.0478 4.42676 14.3436H5.48971C5.48971 14.7662 5.6576 15.1716 5.95646 15.4705C6.25532 15.7694 6.66065 15.9373 7.0833 15.9373C7.50594 15.9373 7.91128 15.7694 8.21014 15.4705C8.509 15.1716 8.6769 14.7662 8.6769 14.3436H9.7393C9.73843 15.0478 9.4583 15.723 8.96034 16.221C8.46238 16.719 7.78725 16.9992 7.08303 17V17Z" fill="black"/>
<path d="M12.927 14.8746H1.24116C0.98768 14.8749 0.74021 14.7974 0.532085 14.6528C0.32396 14.5081 0.165185 14.303 0.0771583 14.0653C-0.0108681 13.8276 -0.0239179 13.5686 0.0397686 13.3232C0.103455 13.0779 0.240815 12.8579 0.433342 12.6931C0.450303 12.6773 0.468497 12.6629 0.487743 12.6501C1.00127 12.2034 1.41306 11.6517 1.69532 11.0323C1.97759 10.4129 2.12378 9.74024 2.12404 9.05957V7.0837C2.11946 5.9692 2.49287 4.88607 3.18331 4.01121C3.87374 3.13635 4.84039 2.52146 5.92539 2.26697L6.17019 3.30061C5.31833 3.50059 4.55946 3.98354 4.01752 4.67057C3.47558 5.3576 3.1826 6.20809 3.18644 7.08315V9.05902C3.18647 9.90436 3.00239 10.7396 2.64701 11.5065C2.29163 12.2735 1.77346 12.9539 1.12855 13.5004L1.09809 13.5249C1.07364 13.5558 1.06041 13.5942 1.06055 13.6337C1.06098 13.6805 1.07972 13.7253 1.11277 13.7584C1.14582 13.7916 1.19054 13.8104 1.23735 13.811H12.9248C12.9716 13.8104 13.0163 13.7916 13.0494 13.7584C13.0824 13.7253 13.1012 13.6805 13.1016 13.6337C13.1019 13.5941 13.0884 13.5556 13.0635 13.5249C13.0527 13.5167 13.0429 13.5091 13.0325 13.5004C12.4039 12.9664 11.8966 12.3042 11.5447 11.5582L12.5049 11.104C12.786 11.6945 13.1849 12.2212 13.6771 12.6517C13.696 12.6644 13.7141 12.678 13.7315 12.6925C13.9243 12.8572 14.0619 13.0771 14.1258 13.3224C14.1897 13.5678 14.1768 13.8268 14.0889 14.0646C14.0009 14.3024 13.8422 14.5075 13.634 14.6523C13.4259 14.797 13.1783 14.8744 12.9248 14.874L12.927 14.8746Z" fill="black"/>
<path d="M12.3955 8.67658C14.6445 8.67658 16.4677 6.85326 16.4677 4.60407C16.4677 2.35488 14.6445 0.531555 12.3955 0.531555C10.1465 0.531555 8.32324 2.35488 8.32324 4.60407C8.32324 6.85326 10.1465 8.67658 12.3955 8.67658Z" fill="#2FDF84"/>
<path d="M9.91715 4.60458C9.91726 3.66294 10.2436 2.75043 10.8407 2.02231C11.4377 1.2942 12.2686 0.795453 13.1919 0.61095C12.6009 0.492271 11.9909 0.506284 11.4059 0.651982C10.8209 0.797679 10.2756 1.07143 9.80926 1.45347C9.34292 1.83551 8.96719 2.31632 8.7092 2.86119C8.45121 3.40607 8.31738 4.00143 8.31738 4.60431C8.31738 5.20719 8.45121 5.80254 8.7092 6.34742C8.96719 6.8923 9.34292 7.3731 9.80926 7.75515C10.2756 8.13719 10.8209 8.41093 11.4059 8.55663C11.9909 8.70233 12.6009 8.71635 13.1919 8.59767C12.2687 8.41318 11.4379 7.91452 10.8408 7.18651C10.2438 6.4585 9.91739 5.54612 9.91715 4.60458V4.60458Z" fill="#00B871"/>
<path d="M7.08303 17C6.37881 16.9992 5.70368 16.719 5.20572 16.221C4.70776 15.723 4.42762 15.0478 4.42676 14.3436H5.48971C5.48971 14.7662 5.6576 15.1716 5.95646 15.4705C6.25532 15.7694 6.66065 15.9373 7.0833 15.9373C7.50594 15.9373 7.91128 15.7694 8.21014 15.4705C8.509 15.1716 8.6769 14.7662 8.6769 14.3436H9.7393C9.73843 15.0478 9.4583 15.723 8.96034 16.221C8.46238 16.719 7.78725 16.9992 7.08303 17V17Z" fill="#174C64"/>
<path d="M12.927 14.8746H1.24116C0.98768 14.8749 0.74021 14.7974 0.532085 14.6528C0.32396 14.5081 0.165185 14.303 0.0771583 14.0653C-0.0108681 13.8276 -0.0239179 13.5686 0.0397686 13.3232C0.103455 13.0779 0.240815 12.8579 0.433342 12.6931C0.450303 12.6773 0.468497 12.6629 0.487743 12.6501C1.00127 12.2034 1.41306 11.6517 1.69532 11.0323C1.97759 10.4129 2.12378 9.74024 2.12404 9.05957V7.0837C2.11946 5.9692 2.49287 4.88607 3.18331 4.01121C3.87374 3.13635 4.84039 2.52146 5.92539 2.26697L6.17019 3.30061C5.31833 3.50059 4.55946 3.98354 4.01752 4.67057C3.47558 5.3576 3.1826 6.20809 3.18644 7.08315V9.05902C3.18647 9.90436 3.00239 10.7396 2.64701 11.5065C2.29163 12.2735 1.77346 12.9539 1.12855 13.5004L1.09809 13.5249C1.07364 13.5558 1.06041 13.5942 1.06055 13.6337C1.06098 13.6805 1.07972 13.7253 1.11277 13.7584C1.14582 13.7916 1.19054 13.8104 1.23735 13.811H12.9248C12.9716 13.8104 13.0163 13.7916 13.0494 13.7584C13.0824 13.7253 13.1012 13.6805 13.1016 13.6337C13.1019 13.5941 13.0884 13.5556 13.0635 13.5249C13.0527 13.5167 13.0429 13.5091 13.0325 13.5004C12.4039 12.9664 11.8966 12.3042 11.5447 11.5582L12.5049 11.104C12.786 11.6945 13.1849 12.2212 13.6771 12.6517C13.696 12.6644 13.7141 12.678 13.7315 12.6925C13.9243 12.8572 14.0619 13.0771 14.1258 13.3224C14.1897 13.5678 14.1768 13.8268 14.0889 14.0646C14.0009 14.3024 13.8422 14.5075 13.634 14.6523C13.4259 14.797 13.1783 14.8744 12.9248 14.874L12.927 14.8746Z" fill="#174C64"/>
<path d="M12.3957 9.20804C11.4852 9.20804 10.5951 8.93802 9.83802 8.43212C9.08094 7.92623 8.49088 7.20718 8.14243 6.36591C7.79399 5.52463 7.70282 4.59891 7.88045 3.70582C8.05809 2.81273 8.49655 1.99237 9.14039 1.34849C9.78423 0.704603 10.6045 0.266113 11.4976 0.0884664C12.3906 -0.0891807 13.3163 0.00199669 14.1575 0.350464C14.9987 0.698931 15.7177 1.28904 16.2236 2.04616C16.7294 2.80329 16.9994 3.69343 16.9994 4.60402C16.9994 5.20863 16.8804 5.80732 16.649 6.36591C16.4176 6.92449 16.0785 7.43203 15.651 7.85955C15.2235 8.28708 14.716 8.62621 14.1575 8.85758C13.5989 9.08895 13.0003 9.20804 12.3957 9.20804V9.20804ZM12.3957 1.06301C11.6953 1.06301 11.0106 1.27072 10.4283 1.65987C9.84589 2.04902 9.392 2.60214 9.12396 3.24927C8.85593 3.89641 8.78579 4.6085 8.92243 5.29549C9.05908 5.98248 9.39635 6.61353 9.89162 7.10882C10.3869 7.60412 11.0179 7.94142 11.7048 8.07807C12.3918 8.21472 13.1038 8.14459 13.7509 7.87653C14.398 7.60848 14.9511 7.15455 15.3402 6.57215C15.7293 5.98974 15.937 5.30502 15.937 4.60456C15.937 3.66529 15.5639 2.76448 14.8998 2.10031C14.2357 1.43614 13.3349 1.06301 12.3957 1.06301V1.06301Z" fill="#174C64"/>
<path d="M13.1019 6.19582H12.0395V3.89409H11.6875V2.8338H12.5731C12.714 2.83395 12.849 2.89001 12.9486 2.98967C13.0481 3.08933 13.104 3.22444 13.104 3.36531L13.1019 6.19582Z" fill="#174C64"/>
</g>
<defs>
<clipPath id="clip0">
<rect width="17" height="17" fill="white"/>
</clipPath>
</defs>
</svg>
