<svg width="23" height="23" viewBox="0 0 23 23" fill="none" xmlns="http://www.w3.org/2000/svg">
<g clip-path="url(#clip0)">
<path d="M20.3651 0.718933H2.63514C2.12737 0.720532 1.64086 0.922938 1.28181 1.28196C0.922767 1.64099 0.720349 2.12747 0.71875 2.63521V6.94749C0.720172 7.45534 0.922511 7.942 1.28158 8.30117C1.64064 8.66034 2.12725 8.86284 2.63514 8.86444H20.3651C20.873 8.86284 21.3596 8.66034 21.7186 8.30117C22.0777 7.942 22.28 7.45534 22.2815 6.94749V2.63521C22.2799 2.12747 22.0774 1.64099 21.7184 1.28196C21.3594 0.922938 20.8728 0.720532 20.3651 0.718933Z" fill="#F3F3F1"/>
<path d="M2.87502 6.94749V2.63521C2.87662 2.12747 3.07904 1.64099 3.43808 1.28196C3.79713 0.922938 4.28364 0.720532 4.79141 0.718933H2.63514C2.12737 0.720532 1.64086 0.922938 1.28181 1.28196C0.922767 1.64099 0.720349 2.12747 0.71875 2.63521V6.94749C0.720172 7.45534 0.922511 7.942 1.28158 8.30117C1.64064 8.66034 2.12725 8.86284 2.63514 8.86444H4.79141C4.28352 8.86284 3.79691 8.66034 3.43785 8.30117C3.07878 7.942 2.87644 7.45534 2.87502 6.94749Z" fill="#D5DBE1"/>
<path d="M19.4064 22.2804V5.5103H3.59424V22.2804L6.46882 19.8844L9.10418 22.2804L11.5003 19.8844L13.8965 22.2804L16.5319 19.8844L19.4064 22.2804Z" fill="#1AE5BD"/>
<path d="M8.62463 19.8844L7.5 20.8216L9.10373 22.2804L10.1307 21.2542L8.62463 19.8844Z" fill="#14B897"/>
<path d="M5.75051 5.5103H3.59424V22.2804L5.75051 20.4834V5.5103Z" fill="#14B897"/>
<path d="M13.6563 19.8844L12.5781 20.9624L13.8961 22.2804L15.0255 21.2542L13.6563 19.8844Z" fill="#14B897"/>
<path d="M18.6879 19.8844L17.6562 20.8216L19.4082 22.2804V20.4834L18.6879 19.8844Z" fill="#14B897"/>
<path d="M20.3653 9.58339H19.4064V8.14551H20.3653C20.6828 8.14498 20.9872 8.01857 21.2116 7.79399C21.4361 7.56942 21.5624 7.26501 21.5627 6.9475V2.63521C21.5622 2.31782 21.4359 2.01359 21.2114 1.78916C20.987 1.56473 20.6827 1.43841 20.3653 1.43788H2.63537C2.31791 1.43824 2.01355 1.5645 1.78907 1.78896C1.56459 2.01343 1.43832 2.31777 1.43796 2.63521V6.9475C1.43832 7.26501 1.56457 7.56942 1.78903 7.79399C2.01349 8.01857 2.31784 8.14498 2.63537 8.14551H3.59423V9.58339H2.63537C1.93653 9.58268 1.26652 9.30472 0.772431 8.81053C0.278339 8.31634 0.000535146 7.6463 0 6.9475V2.63521C0.00071353 1.93653 0.278596 1.26667 0.772669 0.772624C1.26674 0.27858 1.93664 0.000713488 2.63537 0H20.3653C21.064 0.00089145 21.7338 0.278815 22.2278 0.772821C22.7218 1.26683 22.9998 1.93658 23.0007 2.63521V6.9475C23 7.64625 22.7221 8.31618 22.228 8.81033C21.734 9.30448 21.0641 9.5825 20.3653 9.58339Z" fill="#174C64"/>
<path d="M19.4067 22.9993C19.2386 22.9995 19.0758 22.9403 18.9471 22.8322L16.5543 20.8371L14.3812 22.812C14.2442 22.9356 14.0651 23.0021 13.8806 22.9977C13.6961 22.9933 13.5203 22.9184 13.3893 22.7884L11.5026 20.9018L9.61586 22.7884C9.48538 22.9193 9.3095 22.9948 9.12478 22.9993C8.94005 23.0038 8.76069 22.937 8.62397 22.8127L6.44681 20.8385L4.052 22.8336C3.947 22.9205 3.81941 22.9758 3.68414 22.993C3.54888 23.0101 3.41153 22.9884 3.28814 22.9304C3.16475 22.8724 3.06043 22.7805 2.98735 22.6654C2.91428 22.5502 2.87548 22.4167 2.87549 22.2804V5.51029C2.87549 5.31962 2.95124 5.13675 3.08607 5.00192C3.22091 4.8671 3.40378 4.79135 3.59447 4.79135H19.4067C19.5974 4.79135 19.7802 4.8671 19.9151 5.00192C20.0499 5.13675 20.1257 5.31962 20.1257 5.51029V22.2804C20.1257 22.4711 20.0499 22.6539 19.9151 22.7887C19.7802 22.9236 19.5974 22.9993 19.4067 22.9993ZM11.5006 19.1661C11.595 19.1659 11.6885 19.1845 11.7757 19.2207C11.8629 19.2569 11.9421 19.31 12.0086 19.377L13.9196 21.2879L16.0476 19.3527C16.176 19.2362 16.3422 19.17 16.5155 19.1662C16.6889 19.1625 16.8577 19.2216 16.991 19.3325L18.687 20.7475V6.22923H4.3121V20.7461L6.00815 19.3312C6.14164 19.2208 6.31039 19.1621 6.48359 19.1658C6.65679 19.1695 6.82288 19.2354 6.95152 19.3514L9.07949 21.2865L10.9905 19.3756C11.1259 19.2406 11.3093 19.1648 11.5006 19.1648V19.1661Z" fill="#174C64"/>
<path d="M11.8639 15.812H9.82288V14.3748H11.8639C12.0228 14.3748 12.1752 14.3116 12.2875 14.1993C12.3999 14.087 12.463 13.9346 12.463 13.7757C12.463 13.6169 12.3999 13.4645 12.2875 13.3522C12.1752 13.2399 12.0228 13.1767 11.8639 13.1767H11.1362C10.6024 13.167 10.0938 12.9482 9.71982 12.5673C9.34579 12.1865 9.13623 11.674 9.13623 11.1402C9.13623 10.6064 9.34579 10.0939 9.71982 9.71306C10.0938 9.33219 10.6024 9.11336 11.1362 9.10365H13.1772V10.5415H11.1362C10.9773 10.5415 10.8249 10.6046 10.7126 10.717C10.6003 10.8293 10.5371 10.9817 10.5371 11.1405C10.5371 11.2994 10.6003 11.4518 10.7126 11.5641C10.8249 11.6764 10.9773 11.7395 11.1362 11.7395H11.8639C12.404 11.7395 12.9219 11.9541 13.3038 12.3359C13.6857 12.7178 13.9003 13.2357 13.9003 13.7757C13.9003 14.3158 13.6857 14.8337 13.3038 15.2156C12.9219 15.5974 12.404 15.812 11.8639 15.812Z" fill="#174C64"/>
<path d="M10.7812 8.38538H12.2192V9.82258H10.7812V8.38538Z" fill="#174C64"/>
<path d="M10.7812 15.093H12.2192V16.5309H10.7812V15.093Z" fill="#174C64"/>
</g>
<defs>
<clipPath id="clip0">
<rect width="23" height="23" fill="white"/>
</clipPath>
</defs>
</svg>
