<svg xmlns="http://www.w3.org/2000/svg" width="48.243" height="43.392" viewBox="0 0 48.243 43.392"><defs><style>.a{fill:#f5f5f5;}.b{fill:#fff;}.c{fill:#e6e6e6;}.d{fill:#c9c9c9;}</style></defs><path class="a" d="M47.163,27.149c-4.992-7.906-4.325-15.922-6.731-19.731s-9.65-10.428-27.176.639S-.047,31.512,2.6,35.7C14.991,55.324,56,41.151,47.163,27.149Z" transform="translate(-0.156 -1.951)"/><path class="b" d="M37.167,12.454v16.9a2.7,2.7,0,0,1-2.7,2.7H9.454a2.7,2.7,0,0,1-2.7-2.7v-16.9a2.7,2.7,0,0,1,2.7-2.7H34.463A2.7,2.7,0,0,1,37.167,12.454Z" transform="translate(2.163 0.793)"/><path class="a" d="M9.792,29.352v-16.9a2.7,2.7,0,0,1,2.7-2.7H9.454a2.7,2.7,0,0,0-2.7,2.7v16.9a2.7,2.7,0,0,0,2.7,2.7H12.5A2.7,2.7,0,0,1,9.792,29.352Z" transform="translate(2.163 0.793)"/><ellipse class="b" cx="2.366" cy="2.366" rx="2.366" ry="2.366" transform="translate(15.673 15.95)"/><path class="b" d="M17.185,19.75H12.454a2.7,2.7,0,0,0-2.7,2.7v.676H19.889v-.676A2.7,2.7,0,0,0,17.185,19.75Z" transform="translate(3.219 4.311)"/><path class="a" d="M15.5,19.75H12.454a2.7,2.7,0,0,0-2.7,2.7v.676h3.042v-.676A2.7,2.7,0,0,1,15.5,19.75Z" transform="translate(3.219 4.311)"/><path class="a" d="M14.116,18.481a2.346,2.346,0,0,0,1.521-.568,2.335,2.335,0,0,1,0-3.6,2.361,2.361,0,1,0-1.521,4.164Z" transform="translate(3.923 2.2)"/><g transform="translate(34.803 2.641)"><path class="c" d="M0,0H2.7V1.352H0Z" transform="translate(5.499 2.157) rotate(-45)"/><path class="c" d="M0,0H1.352V2.7H0Z" transform="translate(0 0.956) rotate(-45)"/><path class="c" d="M0,0H1.352V2.7H0Z" transform="translate(5.496 6.452) rotate(-45)"/></g><path class="d" d="M34.727,33.333H9.718A3.721,3.721,0,0,1,6,29.615v-16.9A3.721,3.721,0,0,1,9.718,9H34.727a3.721,3.721,0,0,1,3.718,3.718v16.9A3.721,3.721,0,0,1,34.727,33.333ZM9.718,11.028a1.692,1.692,0,0,0-1.69,1.69v16.9a1.692,1.692,0,0,0,1.69,1.69H34.727a1.692,1.692,0,0,0,1.69-1.69v-16.9a1.692,1.692,0,0,0-1.69-1.69Z" transform="translate(1.9 0.529)"/><path class="d" d="M14.38,19.759a3.38,3.38,0,1,1,3.38-3.38A3.384,3.384,0,0,1,14.38,19.759Zm0-4.731a1.352,1.352,0,1,0,1.352,1.352A1.354,1.354,0,0,0,14.38,15.028Z" transform="translate(3.659 1.937)"/><path class="d" d="M21.167,23.393H19.139v-.676a1.692,1.692,0,0,0-1.69-1.69H12.718a1.692,1.692,0,0,0-1.69,1.69v.676H9v-.676A3.721,3.721,0,0,1,12.718,19h4.732a3.721,3.721,0,0,1,3.718,3.718Z" transform="translate(2.955 4.048)"/><path class="d" d="M20.75,13.5h7.435v2.028H20.75Z" transform="translate(7.09 2.113)"/><path class="d" d="M20.75,17.5h7.435v2.028H20.75Z" transform="translate(7.09 3.52)"/><path class="d" d="M20.75,21.5h7.435v2.028H20.75Z" transform="translate(7.09 4.927)"/></svg>