<svg width="18" height="18" viewBox="0 0 18 18" fill="none" xmlns="http://www.w3.org/2000/svg">
<path d="M12.5504 6.80927C12.881 6.50119 12.8992 5.98346 12.5911 5.65291C12.283 5.32235 11.7653 5.30413 11.4347 5.61222L9.04064 7.84359L6.80927 5.44949C6.50119 5.11893 5.98346 5.10071 5.65291 5.4088C5.32235 5.71689 5.30413 6.23461 5.61222 6.56517L7.84359 8.95928L5.44949 11.1906C5.11893 11.4987 5.10071 12.0165 5.4088 12.347C5.71689 12.6776 6.23461 12.6958 6.56517 12.3877L8.95928 10.1563L11.1906 12.5504C11.4987 12.881 12.0165 12.8992 12.347 12.5911C12.6776 12.283 12.6958 11.7653 12.3877 11.4347L10.1563 9.04064L12.5504 6.80927Z" fill="#F95151"/>
<path fill-rule="evenodd" clip-rule="evenodd" d="M0 9C0 4.02944 4.02944 0 9 0C13.9706 0 18 4.02944 18 9C18 13.9706 13.9706 18 9 18C4.02944 18 0 13.9706 0 9ZM9 16.3636C4.93318 16.3636 1.63636 13.0668 1.63636 9C1.63636 4.93318 4.93318 1.63636 9 1.63636C13.0668 1.63636 16.3636 4.93318 16.3636 9C16.3636 13.0668 13.0668 16.3636 9 16.3636Z" fill="#F95151"/>
</svg>
