<svg id="line" xmlns="http://www.w3.org/2000/svg" viewBox="0 0 341.33 341.33"><defs><style>.cls-1{fill:#f3f3f1;}.cls-2{fill:#1ae5bd;}.cls-3{fill:#d5dbe1;}.cls-4{fill:#16c2a0;}.cls-5{fill:#174c64;}</style></defs><path class="cls-1" d="M256,96v71.11A88.92,88.92,0,0,1,344.89,256H416A160.06,160.06,0,0,0,256,96Z" transform="translate(-85.33 -85.33)"/><path class="cls-1" d="M344.89,256a88.81,88.81,0,0,1-26,62.86l50.21,50.21A159.18,159.18,0,0,0,416,256Z" transform="translate(-85.33 -85.33)"/><path class="cls-2" d="M318.86,318.86A88.89,88.89,0,1,1,256,167.11V96A160,160,0,1,0,369.07,369.07Z" transform="translate(-85.33 -85.33)"/><path class="cls-3" d="M288,167.11V99.21A160.57,160.57,0,0,0,256,96v71.11A88.92,88.92,0,0,1,344.89,256h32A88.92,88.92,0,0,0,288,167.11Z" transform="translate(-85.33 -85.33)"/><path class="cls-3" d="M350.86,318.86a88.81,88.81,0,0,0,26-62.86h-32a88.81,88.81,0,0,1-26,62.86l50.21,50.21a160.91,160.91,0,0,0,14.76-17.24Z" transform="translate(-85.33 -85.33)"/><path class="cls-4" d="M128,256c0-77.35,55-141.94,128-156.79V96a160,160,0,1,0,16,319.19c-80.81-8-144-76.27-144-159.19Z" transform="translate(-85.33 -85.33)"/><path class="cls-5" d="M256,426.67c-94.11,0-170.67-76.56-170.67-170.67S161.89,85.33,256,85.33,426.67,161.89,426.67,256,350.11,426.67,256,426.67Zm0-320c-82.35,0-149.33,67-149.33,149.33s67,149.33,149.33,149.33,149.33-67,149.33-149.33S338.35,106.67,256,106.67Z" transform="translate(-85.33 -85.33)"/><path class="cls-5" d="M256,355.56A99.56,99.56,0,1,1,355.56,256,99.68,99.68,0,0,1,256,355.56Zm0-177.78A78.22,78.22,0,1,0,334.22,256,78.31,78.31,0,0,0,256,177.78Z" transform="translate(-85.33 -85.33)"/><path class="cls-5" d="M344.89,245.33H416v21.34H344.89Z" transform="translate(-85.33 -85.33)"/><path class="cls-5" d="M245.33,96h21.34v71.11H245.33Z" transform="translate(-85.33 -85.33)"/><path class="cls-5" d="M313.76,329l15.08-15.08,46.69,46.69-15.08,15.08Z" transform="translate(-85.33 -85.33)"/></svg>