<svg width="6" height="7" viewBox="0 0 6 7" fill="none" xmlns="http://www.w3.org/2000/svg">
<g clip-path="url(#clip0)">
<path d="M4.78864 1.54605H3.89308V1.38322C3.89308 1.11387 3.67394 0.894737 3.40459 0.894737H2.75328C2.48393 0.894737 2.26479 1.11387 2.26479 1.38322V1.54605H1.36923C1.14477 1.54605 0.962158 1.72867 0.962158 1.95313V2.52303C0.962158 2.61295 1.03506 2.68586 1.12499 2.68586H1.21397L1.35465 5.64001C1.36707 5.9009 1.5814 6.10526 1.84257 6.10526H4.31529C4.57648 6.10526 4.79081 5.9009 4.80322 5.64001L4.9439 2.68586H5.03288C5.1228 2.68586 5.19571 2.61295 5.19571 2.52303V1.95313C5.19571 1.72867 5.0131 1.54605 4.78864 1.54605ZM2.59045 1.38322C2.59045 1.29344 2.6635 1.2204 2.75328 1.2204H3.40459C3.49437 1.2204 3.56742 1.29344 3.56742 1.38322V1.54605H2.59045V1.38322ZM1.28782 1.95313C1.28782 1.90824 1.32434 1.87171 1.36923 1.87171H4.78864C4.83353 1.87171 4.87005 1.90824 4.87005 1.95313V2.3602C4.81987 2.3602 1.49576 2.3602 1.28782 2.3602V1.95313ZM4.47793 5.62452C4.47379 5.71148 4.40235 5.77961 4.31529 5.77961H1.84257C1.75551 5.77961 1.68407 5.71148 1.67994 5.62452L1.54 2.68586H4.61787L4.47793 5.62452Z" fill="white"/>
<path d="M3.07884 5.45395C3.16877 5.45395 3.24167 5.38104 3.24167 5.29112V3.17434C3.24167 3.08442 3.16877 3.01151 3.07884 3.01151C2.98892 3.01151 2.91602 3.08442 2.91602 3.17434V5.29112C2.91602 5.38104 2.98891 5.45395 3.07884 5.45395Z" fill="white"/>
<path d="M3.89305 5.45395C3.98298 5.45395 4.05588 5.38104 4.05588 5.29112V3.17434C4.05588 3.08442 3.98298 3.01151 3.89305 3.01151C3.80313 3.01151 3.73022 3.08442 3.73022 3.17434V5.29112C3.73022 5.38104 3.80312 5.45395 3.89305 5.45395Z" fill="white"/>
<path d="M2.26488 5.45395C2.3548 5.45395 2.42771 5.38104 2.42771 5.29112V3.17434C2.42771 3.08442 2.3548 3.01151 2.26488 3.01151C2.17496 3.01151 2.10205 3.08442 2.10205 3.17434V5.29112C2.10205 5.38104 2.17495 5.45395 2.26488 5.45395Z" fill="white"/>
</g>
<defs>
<clipPath id="clip0">
<rect width="5.21053" height="5.21053" fill="white" transform="translate(0.473633 0.894737)"/>
</clipPath>
</defs>
</svg>
