<svg width="7" height="7" viewBox="0 0 7 7" fill="none" xmlns="http://www.w3.org/2000/svg">
<path d="M5.90894 6.21663C5.95595 6.21664 6.00233 6.20586 6.04451 6.18512C6.08669 6.16438 6.12355 6.13423 6.15224 6.09699C6.18093 6.05976 6.20069 6.01644 6.20999 5.97036C6.21929 5.92429 6.21789 5.87669 6.2059 5.83124L5.84385 4.45531C5.83004 4.4026 5.80251 4.3545 5.76406 4.3159L2.4327 0.984803C2.40425 0.956255 2.37045 0.933604 2.33323 0.918149C2.29601 0.902693 2.25611 0.894737 2.21581 0.894737C2.17551 0.894737 2.13561 0.902693 2.09839 0.918149C2.06117 0.933604 2.02737 0.956255 1.99892 0.984803L0.985054 1.99925C0.95648 2.02777 0.933811 2.06165 0.918344 2.09894C0.902876 2.13623 0.894915 2.1762 0.894915 2.21657C0.894915 2.25695 0.902876 2.29692 0.918344 2.33421C0.933811 2.3715 0.95648 2.40538 0.985054 2.43389L4.31728 5.76499C4.3557 5.80338 4.4036 5.8309 4.45611 5.84478L5.83204 6.20741C5.85752 6.21347 5.88361 6.21656 5.9098 6.21663H5.90894ZM5.27124 4.69149L5.47805 5.47811L4.69172 5.27102L1.63687 2.21614L2.21466 1.63662L5.27124 4.69149Z" fill="white"/>
</svg>
