<svg width="236" height="212" viewBox="0 0 236 212" fill="none" xmlns="http://www.w3.org/2000/svg">
<path d="M229.947 123.113C205.527 84.4895 208.795 45.3225 197.022 26.7096C185.249 8.09666 149.819 -24.2391 64.0694 29.8396C-21.6799 83.9183 -0.984183 144.424 11.9605 164.899C72.5737 260.769 273.198 191.523 229.947 123.104V123.113Z" fill="#F5F5F5"/>
<g clip-path="url(#clip0)">
<path d="M172.619 71.1777V119.011C172.609 122.168 171.35 125.192 169.117 127.424C166.884 129.656 163.858 130.913 160.7 130.922H59.4064C58.2324 130.924 57.0696 130.694 55.9847 130.246C54.8998 129.797 53.914 129.139 53.0839 128.309C52.2537 127.48 51.5956 126.494 51.1471 125.41C50.6986 124.325 50.4685 123.163 50.4702 121.989V71.1777L106.538 98.9371C108.096 99.6998 109.808 100.096 111.543 100.096C113.277 100.096 114.989 99.6998 116.547 98.9371L172.619 71.1777Z" fill="#F3F3F1"/>
<path d="M172.619 65.4022V71.1777L116.547 98.9371C114.989 99.6998 113.277 100.096 111.543 100.096C109.808 100.096 108.096 99.6998 106.538 98.9371L50.4702 71.1777V65.4022C50.4685 64.2284 50.6985 63.0658 51.147 61.981C51.5954 60.8961 52.2535 59.9104 53.0836 59.0802C53.9137 58.25 54.8994 57.5916 55.9844 57.1428C57.0693 56.694 58.2322 56.4635 59.4064 56.4646H163.679C164.853 56.463 166.017 56.693 167.102 57.1416C168.187 57.5901 169.174 58.2484 170.004 59.0787C170.835 59.9089 171.493 60.8949 171.942 61.98C172.391 63.0651 172.621 64.228 172.619 65.4022Z" fill="#E4E4E4"/>
<path d="M63.8766 121.989V77.8118L50.4702 71.1777V121.989C50.4685 123.163 50.6986 124.325 51.1471 125.41C51.5956 126.494 52.2537 127.48 53.0839 128.309C53.914 129.139 54.8998 129.797 55.9847 130.246C57.0696 130.694 58.2324 130.924 59.4064 130.922H72.8128C71.6388 130.924 70.476 130.694 69.3911 130.246C68.3061 129.797 67.3204 129.139 66.4902 128.309C65.6601 127.48 65.0019 126.494 64.5534 125.41C64.1049 124.325 63.8749 123.163 63.8766 121.989Z" fill="#D5DBE1"/>
<path d="M63.8766 68.2669V65.4022C63.8749 64.2284 64.1049 63.0658 64.5534 61.981C65.0018 60.8961 65.6599 59.9104 66.49 59.0802C67.3201 58.25 68.3058 57.5916 69.3908 57.1428C70.4757 56.694 71.6386 56.4635 72.8128 56.4646H59.4064C58.2322 56.4635 57.0693 56.694 55.9844 57.1428C54.8994 57.5916 53.9137 58.25 53.0836 59.0802C52.2535 59.9104 51.5954 60.8961 51.147 61.981C50.6985 63.0658 50.4685 64.2284 50.4702 65.4022V71.1777L106.538 98.9371C108.096 99.6998 109.808 100.096 111.543 100.096C113.277 100.096 114.989 99.6998 116.547 98.9371L118.248 95.1677L63.8766 68.2669Z" fill="#E4E4E4"/>
<path d="M150.272 171.129C146.148 171.129 142.115 169.906 138.686 167.615C135.256 165.324 132.583 162.068 131.005 158.259C129.426 154.449 129.013 150.257 129.818 146.213C130.622 142.168 132.609 138.454 135.525 135.538C138.442 132.622 142.158 130.636 146.204 129.832C150.249 129.027 154.442 129.44 158.253 131.018C162.064 132.596 165.321 135.269 167.613 138.697C169.904 142.126 171.128 146.157 171.128 150.28C171.122 155.808 168.923 161.108 165.013 165.016C161.103 168.925 155.802 171.123 150.272 171.129ZM150.272 138.369C147.915 138.369 145.61 139.068 143.65 140.377C141.69 141.687 140.162 143.548 139.26 145.725C138.358 147.903 138.122 150.299 138.583 152.61C139.043 154.922 140.178 157.045 141.846 158.711C143.513 160.378 145.637 161.512 147.95 161.971C150.262 162.431 152.659 162.194 154.836 161.292C157.014 160.389 158.876 158.861 160.185 156.901C161.494 154.941 162.192 152.637 162.191 150.28C162.188 147.121 160.931 144.093 158.696 141.86C156.462 139.627 153.432 138.371 150.272 138.369Z" fill="#C9C9C9"/>
<path d="M150.272 189C144.51 189.01 138.819 187.73 133.617 185.254C128.414 182.777 123.833 179.167 120.209 174.689C116.549 170.168 113.949 164.886 112.598 159.229C111.247 153.573 111.181 147.686 112.403 142C115.458 127.362 127.347 115.476 141.986 112.427C147.673 111.209 153.561 111.277 159.219 112.627C164.877 113.977 170.161 116.575 174.685 120.23C179.164 123.852 182.776 128.431 185.254 133.631C187.732 138.831 189.013 144.52 189.004 150.28V157.727C189.004 161.281 187.592 164.69 185.078 167.204C182.563 169.717 179.153 171.129 175.598 171.129C172.042 171.129 168.632 169.717 166.118 167.204C163.604 164.69 162.191 161.281 162.191 157.727V133.9H171.128V157.727C171.109 158.325 171.211 158.921 171.428 159.478C171.644 160.036 171.97 160.545 172.387 160.975C172.804 161.404 173.302 161.746 173.854 161.979C174.405 162.212 174.997 162.332 175.596 162.332C176.194 162.332 176.787 162.212 177.338 161.979C177.889 161.746 178.388 161.404 178.805 160.975C179.221 160.545 179.548 160.036 179.764 159.478C179.98 158.921 180.082 158.325 180.064 157.727V150.28C180.07 145.846 179.082 141.468 177.173 137.465C175.264 133.463 172.483 129.939 169.033 127.153C165.542 124.334 161.463 122.332 157.096 121.297C152.729 120.261 148.186 120.217 143.8 121.168C138.246 122.372 133.157 125.149 129.139 129.165C125.12 133.182 122.343 138.27 121.139 143.822C120.191 148.209 120.238 152.753 121.276 157.119C122.314 161.486 124.317 165.564 127.138 169.056C129.927 172.5 133.453 175.276 137.455 177.18C141.457 179.085 145.835 180.07 150.268 180.062L150.272 189Z" fill="#C9C9C9"/>
<path d="M101.117 135.391H59.4064C55.8508 135.391 52.4408 133.979 49.9266 131.466C47.4125 128.952 46 125.543 46 121.989V65.4022C46 61.8477 47.4125 58.4388 49.9266 55.9254C52.4408 53.412 55.8508 52 59.4064 52H163.679C167.234 52 170.644 53.412 173.158 55.9254C175.673 58.4388 177.085 61.8477 177.085 65.4022V101.14H168.149V65.4022C168.148 64.2174 167.676 63.0814 166.838 62.2435C166 61.4057 164.864 60.9345 163.679 60.9334H59.4064C58.2219 60.9356 57.0866 61.4073 56.2494 62.245C55.4122 63.0827 54.9415 64.2181 54.9404 65.4022V121.989C54.9426 123.172 55.4138 124.307 56.2509 125.143C57.0879 125.98 58.2226 126.451 59.4064 126.454H101.117V135.391Z" fill="#E5E5E5"/>
<path d="M111.549 104.579C109.115 104.581 106.713 104.016 104.536 102.928L48.4844 75.1816L52.456 67.1738L108.524 94.9332C109.463 95.3871 110.493 95.6228 111.536 95.6228C112.58 95.6228 113.609 95.3871 114.549 94.9332L170.633 67.1696L174.601 75.1775L118.533 102.937C116.364 104.019 113.973 104.581 111.549 104.579Z" fill="#C9C9C9"/>
</g>
<defs>
<clipPath id="clip0">
<rect width="143" height="137" fill="white" transform="translate(46 52)"/>
</clipPath>
</defs>
</svg>
