<svg xmlns="http://www.w3.org/2000/svg" width="33.029" height="34.529" viewBox="0 0 33.029 34.529"><defs><style>.a{fill:#f3f3f1;}.b{fill:#1ae5bd;}.c{fill:#15ba99;}.d{fill:#174c64;}</style></defs><g transform="translate(0 -0.01)"><path class="a" d="M145.655,102.08l15.962.042a2.857,2.857,0,0,1,2.83,2.883l-.006,2.155-.048,17.973-.006,2.156a2.855,2.855,0,0,1-2.845,2.868l-5.676-.015-10.287-.028Z" transform="translate(-142.743 -100.993)"/><path class="a" d="M276.425,127.589l.006-2.157.048-17.972.006-2.157a2.855,2.855,0,0,0-2.83-2.883l3.192.008a2.857,2.857,0,0,1,2.83,2.883l-.006,2.155-.048,17.973-.006,2.156a2.855,2.855,0,0,1-2.845,2.868l-3.192-.008A2.856,2.856,0,0,0,276.425,127.589Z" transform="translate(-257.973 -101.299)"/><path class="b" d="M139.968,106.708l-.07,25.881a1.785,1.785,0,0,1-1.778,1.8,1.9,1.9,0,0,1-.568-.088l-8.506-2.9a1.821,1.821,0,0,1-1.2-1.715l.065-25.888a1.787,1.787,0,0,1,1.779-1.8,1.834,1.834,0,0,1,.566.1l8.507,2.893A1.819,1.819,0,0,1,139.968,106.708Z" transform="translate(-126.782 -100.921)"/><path class="c" d="M145,132.292l.07-25.881a1.82,1.82,0,0,0-1.2-1.714l-6.806-2.318a1.7,1.7,0,0,1,.925-.3,1.835,1.835,0,0,1,.566.092l8.507,2.893a1.819,1.819,0,0,1,1.2,1.714l-.07,25.881a1.785,1.785,0,0,1-1.778,1.8,1.9,1.9,0,0,1-.568-.088l-1.7-.58A1.771,1.771,0,0,0,145,132.292Z" transform="translate(-135.073 -100.993)"/><path class="d" d="M326.489,232.266l-13.479-.036-.01,2.157,13.479.036Z" transform="translate(-293.461 -218.158)"/><path class="d" d="M308,193.779l1.507-1.52-4.556-4.642L309.533,183l-1.5-1.529-5.334,5.377a1.089,1.089,0,0,0-.005,1.525Z" transform="translate(-283.902 -172.462)"/><path class="d" d="M128.476,125.833a2.859,2.859,0,0,0,2.845-2.868l.071-25.881a2.893,2.893,0,0,0-1.913-2.735l-8.52-2.9a2.867,2.867,0,0,0-3.749,2.724l-.07,25.881a2.893,2.893,0,0,0,1.912,2.735l8.52,2.91A2.946,2.946,0,0,0,128.476,125.833Zm-8.427-32.374a.854.854,0,0,1,.256.039l8.48,2.893a.742.742,0,0,1,.476.689l-.064,25.879a.747.747,0,0,1-.969.679l-8.48-2.893a.743.743,0,0,1-.476-.69l.069-25.881A.717.717,0,0,1,120.049,93.459Z" transform="translate(-117.14 -91.294)"/><path class="d" d="M164.064,97.437l2.129.006.006-2.157a3.932,3.932,0,0,0-3.891-3.965l-15.962-.042-.006,2.156,15.962.043a1.789,1.789,0,0,1,1.762,1.8Z" transform="translate(-143.427 -91.27)"/><path class="d" d="M248.66,339.241l5.676.015a3.931,3.931,0,0,0,3.913-3.944l.006-2.157-2.129-.005-.006,2.157a1.786,1.786,0,0,1-1.778,1.8l-5.676-.015Z" transform="translate(-235.539 -309.01)"/></g></svg>