<svg width="13" height="14" viewBox="0 0 13 14" fill="none" xmlns="http://www.w3.org/2000/svg">
<g clip-path="url(#clip0)">
<path d="M1.14613 0.436676L7.42867 0.453705C7.72684 0.456595 8.01169 0.581365 8.22057 0.800573C8.42945 1.01978 8.54526 1.31548 8.54254 1.62263L8.54017 2.49639L8.52128 9.78366L8.51892 10.6578C8.51959 10.8099 8.49116 10.9607 8.43523 11.1015C8.37931 11.2423 8.29699 11.3703 8.193 11.4783C8.089 11.5863 7.96536 11.6721 7.82914 11.7309C7.69293 11.7896 7.54682 11.8201 7.39915 11.8207L5.16511 11.8146L1.11621 11.8032L1.14613 0.436676Z" fill="#F3F3F1"/>
<path d="M7.26235 10.6554L7.26472 9.78082L7.28361 2.49395L7.28597 1.61939C7.28742 1.46727 7.25976 1.31634 7.20455 1.17525C7.14935 1.03415 7.06769 0.90565 6.96424 0.797087C6.86079 0.688525 6.73758 0.602032 6.60166 0.542554C6.46574 0.483076 6.31977 0.451779 6.1721 0.450455L7.42845 0.4537C7.72662 0.45659 8.01147 0.581359 8.22036 0.800567C8.42924 1.01978 8.54505 1.31547 8.54232 1.62263L8.53996 2.49639L8.52106 9.78366L8.51871 10.6578C8.51938 10.8099 8.49094 10.9607 8.43501 11.1015C8.37909 11.2423 8.29679 11.3703 8.19279 11.4783C8.08879 11.5863 7.96515 11.6721 7.82894 11.7309C7.69272 11.7896 7.5466 11.8201 7.39894 11.8207L6.14258 11.8174C6.44064 11.8162 6.72605 11.6932 6.93604 11.4753C7.14602 11.2573 7.2634 10.9624 7.26235 10.6554Z" fill="#F3F3F1"/>
<path d="M5.19009 2.34232L5.16253 12.8359C5.16331 12.9312 5.14581 13.0258 5.11102 13.1141C5.07624 13.2024 5.02485 13.2828 4.95983 13.3506C4.8948 13.4184 4.81741 13.4724 4.73211 13.5093C4.6468 13.5462 4.55525 13.5654 4.46272 13.5658C4.38688 13.5656 4.3115 13.5536 4.23917 13.5301L0.89126 12.3542C0.752668 12.3025 0.63295 12.2079 0.548428 12.0835C0.463906 11.959 0.418691 11.8108 0.418946 11.6589L0.444531 1.16244C0.443857 1.06712 0.461444 0.972599 0.496292 0.884295C0.53114 0.795991 0.582561 0.715637 0.647607 0.64784C0.712653 0.580042 0.790045 0.526133 0.875351 0.489201C0.960657 0.452269 1.0522 0.433041 1.14473 0.432617C1.2206 0.433987 1.29578 0.44767 1.36751 0.473162L4.71581 1.64615C4.85496 1.69755 4.97525 1.79206 5.06017 1.91671C5.14509 2.04136 5.19047 2.19003 5.19009 2.34232Z" fill="#1AE5BD"/>
<path d="M3.90676 12.6863L3.93432 2.1927C3.93455 2.04088 3.88932 1.89268 3.80479 1.76832C3.72027 1.64395 3.60056 1.54947 3.462 1.49775L0.783203 0.557899C0.890475 0.4817 1.01701 0.439426 1.14728 0.436264C1.22298 0.436595 1.29815 0.449181 1.37005 0.473564L4.71835 1.64655C4.85695 1.69822 4.97668 1.79269 5.06121 1.91707C5.14575 2.04145 5.19095 2.18967 5.19066 2.3415L5.16312 12.8351C5.16389 12.9304 5.14638 13.025 5.1116 13.1133C5.07681 13.2016 5.02543 13.282 4.96041 13.3498C4.89538 13.4176 4.818 13.4715 4.73269 13.5085C4.64738 13.5454 4.55583 13.5646 4.46331 13.5649C4.38746 13.5648 4.31207 13.5528 4.23974 13.5293L3.57063 13.2941C3.67231 13.2307 3.75657 13.1416 3.8154 13.0352C3.87423 12.9288 3.90568 12.8087 3.90676 12.6863Z" fill="#15BA99"/>
<path d="M12.9996 5.71612L7.69437 5.70152L7.69043 6.57609L12.9957 6.59069L12.9996 5.71612Z" fill="#174C64"/>
<path d="M9.48444 8.63904L10.0776 8.02275L8.28437 6.14062L10.0878 4.26863L9.49742 3.64868L7.398 5.82883C7.31916 5.9111 7.27478 6.02196 7.27442 6.13757C7.27405 6.25318 7.31771 6.36433 7.39603 6.44714L9.48444 8.63904Z" fill="#174C64"/>
<path d="M4.46179 14.001C4.75989 13.9995 5.04524 13.8762 5.25518 13.6582C5.46512 13.4402 5.5825 13.1453 5.58156 12.8382L5.60951 2.34457C5.61057 2.10225 5.53875 1.86554 5.40392 1.66698C5.2691 1.46841 5.07789 1.31773 4.85656 1.23565L1.50315 0.0598232C1.33396 0.00347351 1.15424 -0.0108923 0.978645 0.0178954C0.803046 0.0466832 0.636535 0.117812 0.492689 0.22548C0.348842 0.333148 0.231731 0.47431 0.150901 0.637457C0.0700708 0.800605 0.0278092 0.981118 0.0275636 1.16429L1.2207e-05 11.6579C-0.0010765 11.9002 0.0706829 12.1368 0.205433 12.3354C0.340184 12.534 0.531314 12.6847 0.752564 12.7668L4.10598 13.9467C4.22112 13.9838 4.34116 14.0021 4.46179 14.001ZM1.14498 0.874791C1.17915 0.874755 1.21312 0.880088 1.24574 0.890604L4.58341 2.06359C4.63831 2.08531 4.68557 2.1236 4.719 2.17344C4.75243 2.22329 4.77047 2.28237 4.77076 2.34295L4.74557 12.8358C4.74352 12.882 4.73119 12.9272 4.70952 12.9679C4.68785 13.0085 4.65742 13.0434 4.62058 13.07C4.58374 13.0966 4.54146 13.1141 4.49701 13.1212C4.45256 13.1284 4.40712 13.1249 4.36418 13.1111L1.0265 11.9381C0.971571 11.9163 0.9243 11.8779 0.890874 11.828C0.857447 11.7781 0.839422 11.7189 0.839155 11.6583L0.866313 1.16469C0.866514 1.08836 0.89585 1.01517 0.947988 0.96093C1.00013 0.906689 1.07088 0.875749 1.14498 0.874791Z" fill="#174C64"/>
<path d="M8.12254 2.49639L8.9605 2.49882L8.96286 1.62425C8.96632 1.20198 8.80701 0.795546 8.51989 0.494146C8.23277 0.192746 7.84129 0.0210053 7.43139 0.0166171L1.14884 -0.000411987L1.14648 0.873751L7.42903 0.891185C7.61468 0.894068 7.79171 0.972375 7.92159 1.10906C8.05148 1.24574 8.1237 1.42974 8.12254 1.62101V2.49639Z" fill="#174C64"/>
<path d="M5.16406 12.2533L7.3981 12.2594C7.8081 12.2575 8.2006 12.088 8.48938 11.7881C8.77815 11.4883 8.93959 11.0826 8.93823 10.6603L8.94059 9.78569L8.10263 9.78366L8.10027 10.6582C8.10099 10.7535 8.08345 10.848 8.04865 10.9363C8.01384 11.0246 7.96246 11.105 7.89745 11.1728C7.83243 11.2406 7.75506 11.2945 7.66978 11.3315C7.5845 11.3684 7.49297 11.3876 7.40046 11.3881L5.16642 11.382L5.16406 12.2533Z" fill="#174C64"/>
</g>
<defs>
<clipPath id="clip0">
<rect width="13" height="14" fill="white"/>
</clipPath>
</defs>
</svg>
