<svg width="22" height="22" viewBox="0 0 22 22" fill="none" xmlns="http://www.w3.org/2000/svg">
<g clip-path="url(#clip0)">
<path d="M0.6875 4.35449V19.4799C0.68903 19.9655 0.882647 20.4309 1.22608 20.7743C1.56952 21.1178 2.03488 21.3114 2.52056 21.3129H19.4796C19.9653 21.3114 20.4307 21.1178 20.7741 20.7743C21.1176 20.4309 21.3112 19.9655 21.3127 19.4799V4.35449H0.6875Z" fill="#F3F3F1"/>
<path d="M0.6875 4.35449V8.70834C0.6875 9.3769 0.953082 10.0181 1.42582 10.4908C1.89856 10.9635 2.53973 11.2291 3.20829 11.2291C3.87684 11.2291 4.51801 10.9635 4.99075 10.4908C5.46349 10.0181 5.72907 9.3769 5.72907 8.70834V8.47953C5.72907 9.20894 6.01883 9.90848 6.5346 10.4242C7.05037 10.94 7.7499 11.2298 8.47931 11.2298C9.20872 11.2298 9.90826 10.94 10.424 10.4242C10.9398 9.90848 11.2296 9.20894 11.2296 8.47953C11.2296 9.99871 12.3575 11.2298 13.7503 11.2298C15.1432 11.2298 16.2711 9.99871 16.2711 8.47953V8.70834C16.2711 9.3769 16.5367 10.0181 17.0094 10.4908C17.4822 10.9635 18.1234 11.2291 18.7919 11.2291C19.4605 11.2291 20.1016 10.9635 20.5744 10.4908C21.0471 10.0181 21.3127 9.3769 21.3127 8.70834V4.35449H0.6875Z" fill="#1AE5BD"/>
<path d="M16.7296 21.3129V16.2714C16.7297 16.0305 16.6823 15.792 16.5902 15.5695C16.4981 15.347 16.363 15.1448 16.1927 14.9745C16.0224 14.8042 15.8202 14.6692 15.5977 14.577C15.3752 14.4849 15.1367 14.4376 14.8959 14.4376H7.10471C6.86388 14.4376 6.62539 14.4849 6.40288 14.577C6.18036 14.6692 5.97818 14.8042 5.80789 14.9745C5.6376 15.1448 5.50253 15.347 5.41041 15.5695C5.31828 15.792 5.27091 16.0305 5.271 16.2714V21.3129H16.7296Z" fill="#1AE5BD"/>
<path d="M0.6875 4.3545L2.26404 1.19175C2.34127 1.03949 2.45934 0.911703 2.60504 0.822692C2.75073 0.733681 2.91831 0.68695 3.08905 0.687723H18.9112C19.0819 0.68695 19.2495 0.733681 19.3952 0.822692C19.5409 0.911703 19.6589 1.03949 19.7362 1.19175L21.3127 4.3545H0.6875Z" fill="#1AE5BD"/>
<path d="M2.75003 8.70835V4.35449H0.687509V8.70835C0.686398 9.12933 0.791039 9.54386 0.991829 9.91388C1.19262 10.2839 1.48313 10.5976 1.83669 10.8261C2.19026 11.0546 2.59556 11.1907 3.01539 11.2218C3.43523 11.2529 3.85616 11.1781 4.23956 11.0042C3.79632 10.8059 3.41987 10.4837 3.15559 10.0763C2.89131 9.66899 2.75046 9.19391 2.75003 8.70835Z" fill="#14B897"/>
<path d="M9.16723 14.4376H7.10471C6.86388 14.4376 6.62539 14.4849 6.40287 14.577C6.18036 14.6692 5.97818 14.8042 5.80789 14.9745C5.6376 15.1448 5.50253 15.347 5.41041 15.5695C5.31828 15.792 5.27091 16.0305 5.271 16.2714V21.3129H7.33352V16.2714C7.33343 16.0305 7.3808 15.792 7.47293 15.5695C7.56505 15.347 7.70012 15.1448 7.87041 14.9745C8.0407 14.8042 8.24288 14.6692 8.4654 14.577C8.68791 14.4849 8.9264 14.4376 9.16723 14.4376Z" fill="#14B897"/>
<path d="M5.15157 0.687723H3.08905C2.91831 0.68695 2.75073 0.733681 2.60504 0.822692C2.45934 0.911703 2.34127 1.03949 2.26404 1.19175L0.6875 4.3545H2.75002L4.32656 1.19175C4.40379 1.03949 4.52186 0.911703 4.66756 0.822692C4.81325 0.733681 4.98083 0.68695 5.15157 0.687723Z" fill="#14B897"/>
<path d="M2.75002 19.4799V11.2298L0.6875 10.3126V19.4799C0.68903 19.9656 0.882647 20.4309 1.22608 20.7744C1.56952 21.1178 2.03488 21.3114 2.52057 21.3129H4.58309C4.0974 21.3114 3.63204 21.1178 3.2886 20.7744C2.94517 20.4309 2.75155 19.9656 2.75002 19.4799Z" fill="#D5DBE1"/>
<path d="M18.7921 11.9168C18.2974 11.9171 17.8094 11.8026 17.3663 11.5826C16.9233 11.3625 16.5372 11.0427 16.2385 10.6484C15.6487 11.4218 14.756 11.9168 13.7506 11.9168C12.7154 11.9168 11.7925 11.389 11.2066 10.5711C10.8887 10.9858 10.4803 11.3225 10.0127 11.5557C9.54502 11.7888 9.03034 11.9122 8.5078 11.9165C7.98526 11.9208 7.46862 11.8059 6.9972 11.5804C6.52578 11.355 6.11198 11.025 5.7873 10.6155C5.38592 11.1584 4.82347 11.5608 4.18006 11.7655C3.53665 11.9701 2.84508 11.9665 2.20384 11.7552C1.56259 11.5438 1.00437 11.1356 0.608676 10.5885C0.212977 10.0415 -2.64979e-05 9.38351 2.47244e-09 8.70834V4.35449H1.37544V8.70834C1.37087 8.952 1.41492 9.19412 1.505 9.42056C1.59509 9.647 1.72941 9.85321 1.9001 10.0271C2.0708 10.2011 2.27446 10.3392 2.49917 10.4335C2.72388 10.5279 2.96513 10.5764 3.20883 10.5764C3.45253 10.5764 3.69378 10.5279 3.91849 10.4335C4.1432 10.3392 4.34686 10.2011 4.51756 10.0271C4.68826 9.85321 4.82257 9.647 4.91266 9.42056C5.00274 9.19412 5.04679 8.952 5.04222 8.70834V7.10473C5.0394 7.01269 5.05509 6.92102 5.08837 6.83516C5.12165 6.7493 5.17183 6.67099 5.23594 6.60489C5.30005 6.53879 5.37678 6.48623 5.46158 6.45034C5.54638 6.41445 5.63753 6.39596 5.72962 6.39596C5.8217 6.39596 5.91285 6.41445 5.99765 6.45034C6.08245 6.48623 6.15919 6.53879 6.2233 6.60489C6.28741 6.67099 6.33759 6.7493 6.37086 6.83516C6.40414 6.92102 6.41983 7.01269 6.41702 7.10473V8.47953C6.41702 9.02654 6.63432 9.55115 7.02111 9.93795C7.40791 10.3247 7.93252 10.542 8.47954 10.542C9.02655 10.542 9.55116 10.3247 9.93796 9.93795C10.3248 9.55115 10.5421 9.02654 10.5421 8.47953V7.10473C10.5392 7.01269 10.5549 6.92102 10.5882 6.83516C10.6215 6.7493 10.6717 6.67099 10.7358 6.60489C10.7999 6.53879 10.8766 6.48623 10.9614 6.45034C11.0462 6.41445 11.1374 6.39596 11.2295 6.39596C11.3215 6.39596 11.4127 6.41445 11.4975 6.45034C11.5823 6.48623 11.659 6.53879 11.7231 6.60489C11.7872 6.67099 11.8374 6.7493 11.8707 6.83516C11.904 6.92102 11.9197 7.01269 11.9169 7.10473V8.47953C11.9169 9.61714 12.7393 10.542 13.7506 10.542C14.7618 10.542 15.5836 9.61714 15.5836 8.47953V7.10473C15.5808 7.01269 15.5965 6.92102 15.6298 6.83516C15.6631 6.7493 15.7132 6.67099 15.7773 6.60489C15.8415 6.53879 15.9182 6.48623 16.003 6.45034C16.0878 6.41445 16.1789 6.39596 16.271 6.39596C16.3631 6.39596 16.4543 6.41445 16.5391 6.45034C16.6239 6.48623 16.7006 6.53879 16.7647 6.60489C16.8288 6.67099 16.879 6.7493 16.9123 6.83516C16.9456 6.92102 16.9612 7.01269 16.9584 7.10473V8.70834C16.9539 8.952 16.9979 9.19412 17.088 9.42056C17.1781 9.647 17.3124 9.85321 17.4831 10.0271C17.6538 10.2011 17.8574 10.3392 18.0822 10.4335C18.3069 10.5279 18.5481 10.5764 18.7918 10.5764C19.0355 10.5764 19.2768 10.5279 19.5015 10.4335C19.7262 10.3392 19.9298 10.2011 20.1005 10.0271C20.2712 9.85321 20.4056 9.647 20.4956 9.42056C20.5857 9.19412 20.6298 8.952 20.6252 8.70834V4.35449H22.0006V8.70834C21.9998 9.55903 21.6615 10.3746 21.06 10.9762C20.4584 11.5777 19.6428 11.916 18.7921 11.9168Z" fill="#174C64"/>
<path d="M17.4175 21.3129H16.0421V16.2714C16.0416 15.9676 15.9207 15.6764 15.7059 15.4616C15.4911 15.2468 15.1999 15.1259 14.8961 15.1254H7.10493C6.80115 15.1259 6.50996 15.2468 6.29516 15.4616C6.08035 15.6764 5.95945 15.9676 5.95894 16.2714V21.3129H4.5835V16.2714C4.58401 15.6028 4.84984 14.9619 5.32261 14.4892C5.79538 14.0166 6.43642 13.7509 7.10493 13.7506H14.8961C15.5646 13.7509 16.2056 14.0166 16.6784 14.4892C17.1512 14.9619 17.417 15.6028 17.4175 16.2714V21.3129Z" fill="#174C64"/>
<path d="M0.6875 3.66678H21.3127V5.04222H0.6875V3.66678Z" fill="#174C64"/>
<path d="M19.4799 22.0005H2.52079C1.85244 21.9998 1.21167 21.734 0.739075 21.2614C0.266483 20.7888 0.000682507 20.148 0 19.4797V4.35434C0.000135625 4.2476 0.0250685 4.14235 0.0728326 4.04689L1.65453 0.887372C1.78653 0.620029 1.99093 0.395108 2.24446 0.238204C2.49799 0.0812996 2.79047 -0.00128626 3.08862 -0.000156407H18.9133C19.2113 -0.00111996 19.5035 0.0815487 19.7568 0.238448C20.0101 0.395347 20.2143 0.620178 20.3461 0.887372L21.9265 4.04561C21.9742 4.14132 21.9991 4.24676 21.9994 4.35369V19.4797C21.9987 20.148 21.7329 20.7888 21.2603 21.2614C20.7877 21.734 20.1469 21.9998 19.4786 22.0005H19.4799ZM1.37544 4.51676V19.4797C1.37595 19.7833 1.49679 20.0743 1.71147 20.289C1.92615 20.5037 2.21718 20.6245 2.52079 20.625H19.4799C19.7835 20.6245 20.0745 20.5037 20.2892 20.289C20.5039 20.0743 20.6247 19.7833 20.6252 19.4797V4.51676L19.1176 1.50162C19.0992 1.46302 19.0703 1.43042 19.0341 1.40761C18.998 1.38479 18.9561 1.37269 18.9133 1.37271H3.08733C3.04452 1.3728 3.00259 1.38494 2.96634 1.40773C2.9301 1.43053 2.901 1.46306 2.88237 1.50162L1.37544 4.51676Z" fill="#174C64"/>
</g>
<defs>
<clipPath id="clip0">
<rect width="22" height="22" fill="white"/>
</clipPath>
</defs>
</svg>
