<svg width="52" height="44" viewBox="0 0 52 44" fill="none" xmlns="http://www.w3.org/2000/svg">
<path d="M9.89778 33.5958L11.546 30.7569H16.7097V37.8721L13.2667 41.4291L11.546 39.6508L8.87017 40.7564C8.72067 40.8184 8.55734 40.8357 8.39876 40.8065C8.24018 40.7773 8.09273 40.7026 7.97318 40.5911C7.85363 40.4795 7.7668 40.3355 7.72255 40.1754C7.6783 40.0154 7.67842 39.8457 7.7229 39.6857L8.46359 37.0078C8.79431 35.8105 9.27594 34.6633 9.89609 33.5958H9.89778Z" fill="#D6DBE1"/>
<path fill-rule="evenodd" clip-rule="evenodd" d="M11.5443 30.7569L9.89609 33.5958C9.27593 34.6633 8.79431 35.8105 8.46359 37.0078L7.7229 39.6857C7.67843 39.8456 7.6783 40.0153 7.72255 40.1754C7.76679 40.3355 7.85363 40.4795 7.97318 40.5911C8.09273 40.7026 8.24019 40.7773 8.39876 40.8065C8.55734 40.8357 8.72067 40.8184 8.87017 40.7564L10.2993 40.1646C10.257 40.008 10.257 39.8423 10.2993 39.6857L11.0459 37.0078C11.3772 35.8107 11.8588 34.6636 12.4784 33.5958L14.1253 30.7569H11.5443ZM14.5563 40.0958L14.1253 39.6504L12.282 40.4132L13.2646 41.4286L14.5563 40.0958Z" fill="#A4AFC1"/>
<path d="M42.4536 33.5958L40.8054 30.7569H35.6416V37.8721L39.0847 41.4291L40.8058 39.6508L43.4816 40.7564C43.6311 40.8184 43.7944 40.8357 43.953 40.8065C44.1116 40.7773 44.259 40.7026 44.3786 40.5911C44.4981 40.4795 44.585 40.3355 44.6292 40.1754C44.6735 40.0154 44.6733 39.8457 44.6289 39.6857L43.8882 37.0078C43.5568 35.8104 43.0744 34.6632 42.4536 33.5958Z" fill="#D6DBE1"/>
<path fill-rule="evenodd" clip-rule="evenodd" d="M44.6301 40.1646L43.386 39.6504L42.6491 40.4132L43.4782 40.7559C43.591 40.8027 43.712 40.8242 43.8334 40.8192C43.9547 40.8142 44.0737 40.7827 44.1825 40.7269C44.2913 40.671 44.3874 40.592 44.4645 40.495C44.5417 40.398 44.5981 40.2853 44.6301 40.1642V40.1646ZM40.3748 40.0958L39.0847 41.4291L35.6416 37.8721V30.7569H38.2243V37.8721L40.3748 40.0958Z" fill="#A4AFC1"/>
<path d="M8.86949 27.4537C9.51569 28.6298 10.4672 29.5958 11.6165 30.2425C13.5125 36.7822 19.3689 40.5434 26.1749 40.5434C32.981 40.5434 38.8395 36.7787 40.7334 30.2425C41.8827 29.5958 42.8342 28.6298 43.4804 27.4537C45.1627 24.441 44.5817 20.8126 42.211 19.1767C42.701 10.0842 35.6905 3.18536 26.7425 3.18536H25.6049C16.6568 3.18536 9.64599 10.0842 10.1377 19.1767C7.76562 20.8126 7.18461 24.441 8.86696 27.4537H8.86949Z" fill="#F3F3F1"/>
<path fill-rule="evenodd" clip-rule="evenodd" d="M11.6179 30.2425C10.4686 29.5958 9.51707 28.6298 8.87086 27.4537C7.18852 24.441 7.76953 20.8126 10.1416 19.1767C9.65032 10.0842 16.6607 3.18536 25.6088 3.18536H26.7464C26.9882 3.18536 27.2305 3.18536 27.4723 3.20147C18.8714 3.56026 12.2482 10.3302 12.726 19.1763C10.3539 20.8122 9.77292 24.4405 11.4565 27.4532C12.1004 28.6282 13.0489 29.594 14.1951 30.2421C15.9693 36.3642 21.2144 40.0513 27.4635 40.4976C27.0374 40.5267 26.6069 40.5412 26.1721 40.5412C19.3694 40.5394 13.5117 36.7787 11.6179 30.2425Z" fill="#D6DBE1"/>
<path d="M19.2904 21.8629H33.0597C33.9725 21.8629 34.8479 22.2377 35.4934 22.9047C36.1389 23.5718 36.5015 24.4765 36.5015 25.4199V30.2426C36.5012 30.6819 36.4077 31.1158 36.2274 31.5137C36.0472 31.9115 35.7846 32.2636 35.4583 32.5451C32.8522 34.7894 29.5673 36.0184 26.1751 36.0184C22.7828 36.0184 19.4979 34.7894 16.8918 32.5451C16.5655 32.2636 16.303 31.9115 16.1227 31.5137C15.9425 31.1158 15.8489 30.6819 15.8486 30.2426V25.4199C15.8486 24.4765 16.2112 23.5718 16.8567 22.9047C17.5022 22.2377 18.3776 21.8629 19.2904 21.8629Z" fill="#1AE5BD"/>
<path fill-rule="evenodd" clip-rule="evenodd" d="M21.8719 21.8629H19.2904C18.3776 21.8629 17.5022 22.2377 16.8567 22.9047C16.2112 23.5718 15.8486 24.4765 15.8486 25.4199V30.2426C15.8489 30.6819 15.9424 31.1158 16.1227 31.5137C16.3029 31.9115 16.5655 32.2636 16.8918 32.5451C19.8399 35.0864 23.6435 36.3145 27.467 35.9597C24.5282 35.6899 21.7392 34.4985 19.4737 32.5451C19.1474 32.2636 18.8848 31.9115 18.7046 31.5137C18.5243 31.1158 18.4308 30.6819 18.4305 30.2426V25.4199C18.4305 24.4766 18.7931 23.5719 19.4384 22.9049C20.0838 22.2378 20.9591 21.863 21.8719 21.8629Z" fill="#15BA99"/>
<path fill-rule="evenodd" clip-rule="evenodd" d="M42.2309 18.75C42.4837 9.86998 35.553 3.18536 26.7406 3.18536H25.603C16.7973 3.18536 9.87075 9.86911 10.1126 18.75H10.686C10.8752 18.7498 11.0621 18.7072 11.2337 18.625L12.6026 17.9584C16.6336 15.9984 20.4696 13.6359 24.0559 10.9045L26.1747 9.28999L28.2936 10.9032C31.8798 13.6346 35.7158 15.9971 39.7468 17.9571L41.1157 18.6237C41.2874 18.7059 41.4743 18.7485 41.6634 18.7487L42.2309 18.75Z" fill="#D6DBE1"/>
<path fill-rule="evenodd" clip-rule="evenodd" d="M42.2339 17.911C42.2398 18.1888 42.2398 18.4674 42.2339 18.75H41.6676C41.4784 18.7499 41.2916 18.7072 41.1199 18.6251L39.751 17.9584C35.72 15.9984 31.884 13.6359 28.2977 10.9046L27.4698 10.2793L28.7599 9.29613L30.8788 10.9094C34.4364 13.6176 38.2396 15.9632 42.2351 17.9131L42.2339 17.911ZM27.4694 3.20281C27.2276 3.1928 26.9853 3.18671 26.7435 3.18671H25.6059C16.8002 3.18671 9.87368 9.87045 10.1155 18.7513H10.6868C10.876 18.7512 11.0629 18.7085 11.2346 18.6264L12.6034 17.9597L12.7003 17.9136C12.8866 9.6941 19.2814 3.54462 27.4648 3.20412L27.4694 3.20281Z" fill="#A4AFC1"/>
<path fill-rule="evenodd" clip-rule="evenodd" d="M25.6067 4.52001C17.3096 4.52001 10.983 10.8646 11.4283 19.1019C11.4407 19.3337 11.3944 19.5649 11.294 19.7725C11.1936 19.9802 11.0425 20.1573 10.8557 20.2862C9.18225 21.4406 8.55658 24.2299 9.98698 26.7897C10.5128 27.7494 11.2879 28.5379 12.2246 29.0661C12.3751 29.149 12.5082 29.2619 12.6162 29.3982C12.7242 29.5345 12.8051 29.6916 12.8541 29.8603C14.5579 35.7246 19.8236 39.2067 26.1759 39.2067C32.5282 39.2067 37.7935 35.7233 39.4978 29.8564C39.5467 29.6876 39.6276 29.5306 39.7356 29.3943C39.8437 29.2579 39.9767 29.1451 40.1272 29.0622C41.0637 28.5337 41.8388 27.7452 42.3649 26.7858C43.7927 24.2294 43.1696 21.4406 41.4961 20.2823C41.3094 20.1532 41.1585 19.9761 41.0581 19.7685C40.9577 19.5608 40.9113 19.3298 40.9235 19.098C41.3688 10.8611 35.0418 4.51609 26.7451 4.51609L25.6067 4.52001ZM8.82539 18.535C8.68551 8.94957 16.239 1.85217 25.6067 1.85217H26.7443C36.1124 1.85217 43.6663 8.94957 43.526 18.535C46.0615 20.7935 46.4037 24.8922 44.5996 28.1204C43.9238 29.3444 42.9682 30.3788 41.8163 31.1331C39.574 38.0232 33.2634 41.8741 26.1759 41.8741C19.0884 41.8741 12.7778 38.0232 10.5381 31.1331C9.3862 30.3788 8.43061 29.3444 7.75481 28.1204C5.94691 24.8908 6.28986 20.7931 8.82539 18.535Z" fill="#174C64"/>
<path fill-rule="evenodd" clip-rule="evenodd" d="M14.5566 25.4199C14.5566 24.1226 15.0553 22.8784 15.9429 21.9611C16.8306 21.0437 18.0345 20.5284 19.2898 20.5284H33.0595C34.3148 20.5284 35.5187 21.0437 36.4063 21.9611C37.294 22.8784 37.7926 24.1226 37.7926 25.4199V30.2427C37.7925 30.8773 37.6575 31.5042 37.3971 32.079C37.1366 32.6538 36.7572 33.1624 36.2856 33.5689C33.4475 36.0134 29.8698 37.3522 26.1753 37.3522C22.4807 37.3522 18.9031 36.0134 16.065 33.5689C15.5932 33.1624 15.2135 32.6538 14.953 32.0789C14.6924 31.5041 14.5572 30.877 14.5571 30.2422L14.5566 25.4199ZM19.2898 23.1993C18.7196 23.1993 18.1728 23.4331 17.7693 23.8495C17.3659 24.2659 17.1389 24.8307 17.1381 25.4199V30.2427C17.1383 30.4865 17.1903 30.7272 17.2905 30.9479C17.3907 31.1686 17.5366 31.3638 17.7178 31.5198C20.0917 33.5647 23.0843 34.6846 26.1746 34.6846C29.265 34.6846 32.2576 33.5647 34.6315 31.5198C34.8127 31.3638 34.9586 31.1686 35.0588 30.9479C35.159 30.7272 35.211 30.4865 35.2112 30.2427V25.4199C35.2104 24.8307 34.9834 24.2659 34.5799 23.8495C34.1765 23.4331 33.6296 23.1993 33.0595 23.1993H19.2898Z" fill="#174C64"/>
<path fill-rule="evenodd" clip-rule="evenodd" d="M13.2148 33.3689L14.9355 31.5902L16.7616 33.4773L15.0417 35.2569L13.2148 33.3689Z" fill="#174C64"/>
<path fill-rule="evenodd" clip-rule="evenodd" d="M39.1356 33.3689L37.4149 31.5902L35.5889 33.4773L37.3087 35.2569L39.1356 33.3689Z" fill="#174C64"/>
<path fill-rule="evenodd" clip-rule="evenodd" d="M11.4017 18.9739L16.5641 22.5322L15.1316 24.7528L9.96875 21.1945L11.4017 18.9739Z" fill="#174C64"/>
<path fill-rule="evenodd" clip-rule="evenodd" d="M40.9486 18.9739L35.7861 22.5322L37.2186 24.7528L42.3815 21.1945L40.9486 18.9739Z" fill="#174C64"/>
<path fill-rule="evenodd" clip-rule="evenodd" d="M30.4759 27.6441H21.8691V24.9762H30.4759V27.6441Z" fill="#174C64"/>
<path fill-rule="evenodd" clip-rule="evenodd" d="M30.4759 32.0914H21.8691V29.4223H30.4759V32.0914Z" fill="#174C64"/>
<path fill-rule="evenodd" clip-rule="evenodd" d="M33.3934 18.953C33.04 18.7097 32.6249 18.5798 32.2002 18.5798C31.7755 18.5798 31.3604 18.7097 31.007 18.953L30.3329 19.4159L28.9004 17.1952L29.572 16.7324C30.3494 16.1965 31.263 15.9106 32.1975 15.9106C33.1319 15.9106 34.0455 16.1965 34.8229 16.7324L35.4971 17.1952L34.0646 19.4159L33.3934 18.953Z" fill="#174C64"/>
<path fill-rule="evenodd" clip-rule="evenodd" d="M21.3445 18.953C20.9911 18.7097 20.576 18.5798 20.1513 18.5798C19.7267 18.5798 19.3115 18.7097 18.9581 18.953L18.2866 19.4159L16.8574 17.1952L17.5315 16.7324C18.309 16.1965 19.2225 15.9106 20.157 15.9106C21.0915 15.9106 22.0051 16.1965 22.7825 16.7324L23.4541 17.1952L22.0216 19.4159L21.3445 18.953Z" fill="#174C64"/>
<path fill-rule="evenodd" clip-rule="evenodd" d="M25.4094 6.55875C25.6314 6.38998 25.8998 6.29895 26.1754 6.29895C26.451 6.29895 26.7194 6.38998 26.9413 6.55875L29.8282 8.75807C33.2789 11.3861 36.9698 13.6594 40.8484 15.5454L42.2173 16.2108L41.1185 18.6256L39.7496 17.959C35.7186 15.999 31.8826 13.6365 28.2963 10.9051L26.1775 9.2919L24.0586 10.9051C20.4724 13.6365 16.6364 15.999 12.6054 17.959L11.2365 18.6256L10.1377 16.2108L11.5066 15.5454C15.3843 13.6592 19.0743 11.386 22.5242 8.75807L25.4094 6.55875Z" fill="#174C64"/>
<path fill-rule="evenodd" clip-rule="evenodd" d="M8.78982 32.9092L10.4418 30.0702L12.6563 31.4461L11.0081 34.2838C10.445 35.2499 10.0067 36.2881 9.70451 37.3718L9.20609 39.1779L11.065 38.4099C11.2992 38.3128 11.5559 38.2891 11.8031 38.3416C12.0503 38.3941 12.2771 38.5205 12.4553 38.7051L13.2639 39.5406L15.7943 36.9281L17.6191 38.8144L14.1773 42.3761C13.935 42.626 13.6066 42.7664 13.2643 42.7664C12.9219 42.7664 12.5936 42.626 12.3513 42.3761L11.2318 41.2192L9.35102 42.003C8.97744 42.1574 8.56946 42.2004 8.1734 42.1272C7.77733 42.054 7.40906 41.8676 7.11039 41.589C6.81172 41.3104 6.59461 40.9508 6.48372 40.5511C6.37284 40.1514 6.37261 39.7276 6.48307 39.3277L7.22376 36.6499C7.58608 35.3404 8.11302 34.0857 8.79108 32.9179L8.78982 32.9092Z" fill="#174C64"/>
<path fill-rule="evenodd" clip-rule="evenodd" d="M43.562 32.9092L41.91 30.0702L39.6955 31.4461L41.3437 34.2838C41.9068 35.2499 42.3451 36.2881 42.6473 37.3718L43.1457 39.1779L41.2868 38.4099C41.0526 38.3128 40.7959 38.2891 40.5487 38.3416C40.3015 38.3941 40.0747 38.5205 39.8965 38.7051L39.0879 39.5406L36.5575 36.9281L34.7314 38.8135L38.1732 42.3752C38.4156 42.6251 38.7439 42.7655 39.0862 42.7655C39.4286 42.7655 39.7569 42.6251 39.9993 42.3752L41.1187 41.2183L42.9995 42.0021C43.3731 42.1565 43.7811 42.1995 44.1771 42.1263C44.5732 42.0532 44.9415 41.8667 45.2401 41.5881C45.5388 41.3095 45.7559 40.9499 45.8668 40.5502C45.9777 40.1505 45.9779 39.7267 45.8675 39.3268L45.1268 36.649C44.7631 35.339 44.2341 34.0842 43.5535 32.917L43.562 32.9092Z" fill="#174C64"/>
</svg>
