<svg xmlns="http://www.w3.org/2000/svg" width="122.571" height="98.5" viewBox="0 0 122.571 98.5"><defs><style>.a{fill:#fff;}.b,.e{fill:#d6dbe1;}.c{fill:#a4afc1;}.c,.e,.g,.h{fill-rule:evenodd;}.d{fill:#f3f3f1;}.f{fill:#1ae5bd;}.g{fill:#15ba99;}.h{fill:#174c64;}</style></defs><g transform="translate(0.011 -0.001)"><path class="a" d="M104.481,91.61c-26.681,6.67-18.3-9.844-44.461-5.558C35,94.39,40.985,155.609,53.3,168.149c6.716,6.828,12.274,9.608,34.5,4.05s7.181,18.179,48.876,9.835,27.79-52.8,19.451-75.028S137.832,83.274,104.481,91.61Z" transform="translate(-42.67 -85.33)"/><path class="b" d="M108.485,333.63l3.912-6.52h12.256v16.341l-8.172,8.169-4.084-4.084-6.351,2.539a2.042,2.042,0,0,1-2.723-2.459l1.758-6.15a32.618,32.618,0,0,1,3.4-7.836Z" transform="translate(-85.853 -257.661)"/><path class="c" d="M112.411,327.11l-3.912,6.52a32.618,32.618,0,0,0-3.4,7.836l-1.758,6.15a2.042,2.042,0,0,0,2.723,2.459l3.392-1.359a2.048,2.048,0,0,1,0-1.1l1.772-6.15a32.745,32.745,0,0,1,3.4-7.836l3.909-6.52Zm7.149,21.448-1.023-1.023-4.375,1.752,2.332,2.332Z" transform="translate(-85.867 -257.661)"/><path class="b" d="M350.388,333.63l-3.912-6.52H334.22v16.341l8.172,8.169,4.085-4.084,6.351,2.539a2.042,2.042,0,0,0,2.723-2.459l-1.758-6.15A32.62,32.62,0,0,0,350.388,333.63Z" transform="translate(-250.485 -257.661)"/><path class="c" d="M355.556,348.716l-2.953-1.181-1.749,1.752,1.968.787a2.045,2.045,0,0,0,2.734-1.359Zm-10.1-.158-3.062,3.062-8.172-8.169V327.11h6.13v16.341Z" transform="translate(-250.485 -257.661)"/><path class="d" d="M107.311,162.395a16.66,16.66,0,0,0,6.52,6.405c4.5,15.019,18.4,23.657,34.554,23.657s30.059-8.646,34.554-23.657a16.66,16.66,0,0,0,6.52-6.405c3.993-6.919,2.614-15.252-3.013-19.009,1.163-20.882-15.476-36.726-36.714-36.726h-2.7c-21.238,0-37.878,15.844-36.711,36.726-5.63,3.757-7.009,12.09-3.016,19.009Z" transform="translate(-87.117 -100.532)"/><path class="e" d="M113.845,168.8a16.66,16.66,0,0,1-6.52-6.405c-3.993-6.919-2.614-15.252,3.016-19.009-1.166-20.882,15.473-36.726,36.711-36.726h2.7c.574,0,1.149,0,1.723.037-20.414.824-36.134,16.372-35,36.688-5.63,3.757-7.009,12.09-3.013,19.009a16.659,16.659,0,0,0,6.5,6.405c4.211,14.06,16.66,22.528,31.492,23.553q-1.517.1-3.065.1C132.243,192.448,118.34,183.811,113.845,168.8Z" transform="translate(-87.132 -100.532)"/><path class="f" d="M178.839,256H211.52a8.169,8.169,0,0,1,8.169,8.169v11.076a6.893,6.893,0,0,1-2.476,5.288,34.419,34.419,0,0,1-44.067,0,6.894,6.894,0,0,1-2.476-5.288V264.169A8.169,8.169,0,0,1,178.839,256Z" transform="translate(-133.912 -206.977)"/><path class="g" d="M184.966,256h-6.127a8.169,8.169,0,0,0-8.169,8.169v11.076a6.893,6.893,0,0,0,2.476,5.288,34.387,34.387,0,0,0,25.1,7.842,34.362,34.362,0,0,1-18.972-7.842,6.894,6.894,0,0,1-2.476-5.288V264.169A8.169,8.169,0,0,1,184.966,256Z" transform="translate(-133.912 -206.977)"/><path class="e" d="M199.456,142.406c.6-20.394-15.85-35.746-36.766-35.746h-2.7c-20.9,0-37.34,15.35-36.766,35.746h1.361a3.1,3.1,0,0,0,1.3-.287l3.249-1.531a162.265,162.265,0,0,0,27.184-16.2l5.029-3.708,5.029,3.705a162.267,162.267,0,0,0,27.184,16.2l3.249,1.531a3.1,3.1,0,0,0,1.3.287Z" transform="translate(-100.083 -100.532)"/><path class="c" d="M199.476,140.479c.014.638.014,1.278,0,1.927h-1.344a3.1,3.1,0,0,1-1.3-.287l-3.249-1.531a162.265,162.265,0,0,1-27.184-16.2l-1.965-1.436,3.062-2.258,5.029,3.705a162.324,162.324,0,0,0,26.954,16.085ZM164.433,106.7c-.574-.023-1.149-.037-1.723-.037h-2.7c-20.9,0-37.34,15.35-36.766,35.746H124.6a3.1,3.1,0,0,0,1.3-.287l3.249-1.531.23-.106c.442-18.877,15.62-33,35.043-33.782Z" transform="translate(-100.098 -100.532)"/><path class="h" d="M139.462,102.127c-19.693,0-34.709,14.571-33.652,33.489a3.068,3.068,0,0,1-1.359,2.72c-3.972,2.651-5.457,9.057-2.062,14.936A13.575,13.575,0,0,0,107.7,158.5a3.065,3.065,0,0,1,1.494,1.824c4.044,13.468,16.542,21.465,31.619,21.465s27.574-8,31.619-21.474a3.065,3.065,0,0,1,1.494-1.824,13.592,13.592,0,0,0,5.311-5.228c3.389-5.871,1.91-12.276-2.062-14.936a3.073,3.073,0,0,1-1.359-2.72c1.057-18.917-13.96-33.489-33.652-33.489ZM99.632,134.314C99.3,112.3,117.228,96,139.462,96h2.7c22.235,0,40.164,16.3,39.831,38.314,6.018,5.187,6.83,14.6,2.548,22.014a19.819,19.819,0,0,1-6.606,6.919c-5.322,15.824-20.3,24.668-37.122,24.668s-31.8-8.844-37.116-24.668a19.819,19.819,0,0,1-6.606-6.919C92.8,148.911,93.614,139.5,99.632,134.314Z" transform="translate(-79.544 -92.934)"/><path class="h" d="M160,256.564a11.234,11.234,0,0,1,11.234-11.234h32.682a11.234,11.234,0,0,1,11.234,11.234v11.076a9.949,9.949,0,0,1-3.577,7.639,37.481,37.481,0,0,1-47.993,0,9.95,9.95,0,0,1-3.579-7.64Zm11.234-5.1a5.107,5.107,0,0,0-5.107,5.1v11.076a3.82,3.82,0,0,0,1.376,2.933,31.349,31.349,0,0,0,40.144,0,3.82,3.82,0,0,0,1.376-2.933V256.564a5.107,5.107,0,0,0-5.107-5.1Z" transform="translate(-126.307 -199.372)"/><path class="h" d="M148.9,337.864l4.084-4.085,4.334,4.334-4.082,4.087Z" transform="translate(-118.395 -262.416)"/><path class="h" d="M342.209,337.864l-4.084-4.085-4.334,4.334,4.082,4.087Z" transform="translate(-250.178 -262.416)"/><path class="h" d="M125.481,232.9l12.253,8.172-3.4,5.1L122.08,238Z" transform="translate(-99.279 -190.512)"/><path class="h" d="M347.673,232.9l-12.253,8.172,3.4,5.1L351.074,238Z" transform="translate(-251.34 -190.512)"/><path class="h" d="M240.868,287.017H220.44V280.89h20.428Z" transform="translate(-169.386 -224.717)"/><path class="h" d="M240.868,322.57H220.44v-6.13h20.428Z" transform="translate(-169.386 -250.056)"/><path class="h" d="M289.189,215.395a5.107,5.107,0,0,0-5.664,0l-1.6,1.063-3.4-5.1,1.594-1.063a11.231,11.231,0,0,1,12.463,0l1.6,1.063-3.4,5.1Z" transform="translate(-210.791 -173.055)"/><path class="h" d="M189.651,215.395a5.107,5.107,0,0,0-5.664,0l-1.594,1.063-3.392-5.1,1.6-1.063a11.231,11.231,0,0,1,12.463,0l1.594,1.063-3.4,5.1Z" transform="translate(-139.849 -173.055)"/><path class="h" d="M159.712,132.149a3.068,3.068,0,0,1,3.636,0L170.2,137.2a156.158,156.158,0,0,0,26.156,15.588l3.249,1.528-2.608,5.546-3.249-1.531a162.263,162.263,0,0,1-27.184-16.2l-5.029-3.705-5.029,3.705a162.263,162.263,0,0,1-27.184,16.2l-3.249,1.531-2.608-5.546,3.249-1.528A156.158,156.158,0,0,0,152.864,137.2Z" transform="translate(-100.262 -118.274)"/><path class="h" d="M98.284,328.14l3.921-6.52,5.256,3.16-3.912,6.517a29.663,29.663,0,0,0-3.094,7.092l-1.183,4.148,4.412-1.764a3.056,3.056,0,0,1,3.3.678l1.919,1.919,6.006-6,4.331,4.332-8.169,8.18a3.068,3.068,0,0,1-4.334,0l-2.657-2.657-4.464,1.8a5.107,5.107,0,0,1-6.807-6.144l1.758-6.15a35.774,35.774,0,0,1,3.72-8.571Z" transform="translate(-78.278 -253.748)"/><path class="h" d="M347.639,328.14l-3.921-6.52-5.256,3.16,3.912,6.517a29.661,29.661,0,0,1,3.094,7.092l1.183,4.148-4.412-1.764a3.056,3.056,0,0,0-3.3.678l-1.919,1.919-6.006-6L326.68,341.7l8.169,8.18a3.068,3.068,0,0,0,4.334,0l2.657-2.657,4.464,1.8a5.107,5.107,0,0,0,6.807-6.144l-1.758-6.15a35.661,35.661,0,0,0-3.734-8.571Z" transform="translate(-245.11 -253.748)"/></g></svg>