<svg id="_1_5" data-name="1,5" xmlns="http://www.w3.org/2000/svg" viewBox="0 0 227.56 341.33"><defs><style>.cls-1{fill:#2fdf84;}.cls-2{fill:#174c64;}</style></defs><path class="cls-1" d="M152.89,323.56V416h92.44l-32-32,98.08-98.08a7.12,7.12,0,0,0,0-10.05L293,257.48a7.12,7.12,0,0,0-10,0l-98.08,98.08Z" transform="translate(-142.22 -85.33)"/><path class="cls-2" d="M224,267.26a17.72,17.72,0,0,1-12.57-5.2L193,243.67a17.81,17.81,0,0,1,0-25.15L283.58,128l-24.47-24.46a10.67,10.67,0,0,1,7.56-18.21h92.44A10.67,10.67,0,0,1,369.78,96v92.44A10.66,10.66,0,0,1,351.57,196l-24.46-24.45-90.54,90.54A17.75,17.75,0,0,1,224,267.26Zm-13.35-36.15L224,244.47l95.57-95.58a10.68,10.68,0,0,1,15.09,0l13.8,13.8v-56h-56l13.79,13.79a10.66,10.66,0,0,1,0,15.09Z" transform="translate(-142.22 -85.33)"/><path class="cls-2" d="M245.33,426.67H152.89A10.67,10.67,0,0,1,142.22,416V323.56A10.66,10.66,0,0,1,160.43,316l24.46,24.46,90.54-90.54a17.82,17.82,0,0,1,25.14,0L319,268.33a17.81,17.81,0,0,1,0,25.15L228.42,384l24.47,24.46a10.67,10.67,0,0,1-7.56,18.21Zm-81.77-21.34h56l-13.8-13.79a10.66,10.66,0,0,1,0-15.09l95.57-95.58L288,267.52l-95.57,95.57a10.66,10.66,0,0,1-15.09,0l-13.8-13.79v56Z" transform="translate(-142.22 -85.33)"/></svg>