<svg width="10" height="15" viewBox="0 0 10 15" fill="none" xmlns="http://www.w3.org/2000/svg">
<g clip-path="url(#clip0)">
<path d="M0.46875 10.4692V14.5315H4.53098L3.12475 13.1253L7.43482 8.81508C7.49324 8.75644 7.52604 8.67703 7.52604 8.59425C7.52604 8.51147 7.49324 8.43207 7.43482 8.37343L6.62581 7.56526C6.56726 7.50751 6.48832 7.47513 6.40609 7.47513C6.32385 7.47513 6.24491 7.50751 6.18636 7.56526L1.87629 11.8755L0.46875 10.4692Z" fill="#1AE5BD"/>
<path d="M3.59363 7.99505C3.49104 7.99522 3.38943 7.97513 3.29463 7.93591C3.19984 7.89669 3.11373 7.83913 3.04124 7.76653L2.23135 6.95837C2.08507 6.81166 2.00293 6.61293 2.00293 6.40575C2.00293 6.19857 2.08507 5.99985 2.23135 5.85313L6.21184 1.87516L5.13652 0.800252C5.07097 0.734624 5.02637 0.651031 5.00834 0.560047C4.99031 0.469063 4.99967 0.374776 5.03523 0.289112C5.07079 0.203448 5.13096 0.130255 5.20813 0.0787929C5.28529 0.0273305 5.37599 -8.97454e-05 5.46874 2.20676e-07H9.53096C9.65532 2.20676e-07 9.77458 0.049402 9.86251 0.137338C9.95045 0.225274 9.99985 0.344541 9.99985 0.468901V4.53125C10.0001 4.62409 9.97285 4.71494 9.92143 4.79224C9.87 4.86954 9.79677 4.92982 9.71102 4.96542C9.62527 5.00102 9.53088 5.01034 9.43982 4.99219C9.34877 4.97404 9.26516 4.92924 9.19962 4.86348L8.12474 3.789L4.14601 7.76785C4.07337 7.84015 3.98721 7.89743 3.89242 7.93642C3.79764 7.9754 3.69611 7.99533 3.59363 7.99505ZM3.00697 6.40641L3.59363 6.99353L7.7934 2.79319C7.88139 2.70536 8.00063 2.65603 8.12496 2.65603C8.24928 2.65603 8.36853 2.70536 8.45652 2.79319L9.06295 3.39964V0.938681H6.60206L7.20806 1.54469C7.25165 1.58821 7.28624 1.63989 7.30984 1.69678C7.33343 1.75368 7.34558 1.81467 7.34558 1.87626C7.34558 1.93786 7.33343 1.99885 7.30984 2.05574C7.28624 2.11264 7.25165 2.16432 7.20806 2.20783L3.00697 6.40641Z" fill="#174C64"/>
<path d="M4.53112 15.0004H0.46889C0.344533 15.0004 0.22527 14.951 0.137336 14.8631C0.0494028 14.7752 2.46291e-06 14.6559 2.46291e-06 14.5315V10.4692C-0.000298538 10.3764 0.0269965 10.2855 0.078422 10.2082C0.129847 10.1309 0.203084 10.0706 0.288833 10.035C0.374581 9.99942 0.468975 9.99011 0.560028 10.0083C0.651081 10.0264 0.734687 10.0712 0.800231 10.137L1.87511 11.2119L5.85384 7.23303C6.00059 7.08699 6.1992 7.005 6.40623 7.005C6.61325 7.005 6.81186 7.08699 6.95861 7.23303L7.7685 8.04207C7.91478 8.18878 7.99692 8.38751 7.99692 8.59469C7.99692 8.80187 7.91478 9.0006 7.7685 9.14731L3.78801 13.1253L4.86334 14.2002C4.92888 14.2658 4.97348 14.3494 4.99151 14.4404C5.00954 14.5314 5.00018 14.6257 4.96462 14.7113C4.92906 14.797 4.86889 14.8702 4.79172 14.9217C4.71456 14.9731 4.62387 15.0005 4.53112 15.0004ZM0.937777 14.0626H3.39867L2.79223 13.4566C2.74864 13.4131 2.71405 13.3614 2.69045 13.3045C2.66686 13.2476 2.65471 13.1867 2.65471 13.1251C2.65471 13.0635 2.66686 13.0025 2.69045 12.9456C2.71405 12.8887 2.74864 12.837 2.79223 12.7935L6.992 8.59315L6.40623 8.00648L2.20645 12.2064C2.16294 12.25 2.11126 12.2846 2.05437 12.3082C1.99747 12.3318 1.93649 12.3439 1.87489 12.3439C1.8133 12.3439 1.75231 12.3318 1.69542 12.3082C1.63852 12.2846 1.58684 12.25 1.54333 12.2064L0.936898 11.6004V14.0613L0.937777 14.0626Z" fill="#174C64"/>
</g>
<defs>
<clipPath id="clip0">
<rect width="10" height="15" fill="white"/>
</clipPath>
</defs>
</svg>
