<svg width="115" height="284" viewBox="0 0 115 284" fill="none" xmlns="http://www.w3.org/2000/svg">
<path fill-rule="evenodd" clip-rule="evenodd" d="M0.49999 55.2683L57.4039 0.499993L114.5 55.0849L95.532 73.341L71.0738 49.959L71.6398 208.323C87.3125 213.566 98.5892 227.836 98.668 244.665C98.7679 266.017 80.8039 283.404 58.5442 283.5C36.2844 283.595 18.1583 266.364 18.0583 245.012C17.9795 228.174 29.134 213.802 44.7699 208.43L44.2026 49.7182L19.5321 73.4629L0.49999 55.2683ZM58.3028 231.951C50.8829 231.983 44.8949 237.779 44.9282 244.896C44.9615 252.013 51.0036 257.757 58.4235 257.725C65.8434 257.693 71.8314 251.898 71.7981 244.78C71.7648 237.663 65.7227 231.919 58.3028 231.951Z" fill="#1AE5BD"/>
</svg>
