<svg width="41" height="36" viewBox="0 0 41 36" fill="none" xmlns="http://www.w3.org/2000/svg">
<g clip-path="url(#clip0)">
<path d="M15.8621 25.4991C23.2826 25.4991 29.298 20.041 29.298 13.3081C29.298 6.5752 23.2826 1.11711 15.8621 1.11711C8.44171 1.11711 2.42627 6.5752 2.42627 13.3081C2.42627 20.041 8.44171 25.4991 15.8621 25.4991Z" fill="#1AE5BD"/>
<path d="M6.32564 13.3098C6.32866 10.386 7.49057 7.56066 9.5992 5.34971C11.7078 3.13876 14.6225 1.68969 17.8111 1.26707C15.8952 0.997163 13.9375 1.10667 12.0726 1.58808C10.2077 2.06949 8.47974 2.91139 7.00732 4.05597C5.53489 5.20055 4.3529 6.62071 3.5425 8.21893C2.7321 9.81714 2.3125 11.5556 2.3125 13.3148C2.3125 15.0741 2.7321 16.8125 3.5425 18.4107C4.3529 20.0089 5.53489 21.4291 7.00732 22.5737C8.47974 23.7182 10.2077 24.5601 12.0726 25.0415C13.9375 25.5229 15.8952 25.6325 17.8111 25.3626C14.6216 24.94 11.7061 23.4904 9.59731 21.2785C7.48853 19.0665 6.32724 16.24 6.32564 13.3154V13.3098Z" fill="#14B897"/>
<path d="M1.38113 35.9956L0 34.0047L18.6361 23.3865C18.8856 23.2446 19.1807 23.1835 19.4734 23.2132C19.766 23.2429 20.039 23.3617 20.2477 23.5502L26.2635 29.0086L38.7802 17.6472L40.6197 19.3162L27.1838 31.5083C26.935 31.7211 26.606 31.8396 26.2641 31.8396C25.9221 31.8396 25.5931 31.7211 25.3443 31.5083L19.1432 25.8807L1.38113 35.9956Z" fill="#174C64"/>
<path d="M41.0002 24.7757H38.3989V19.6613H32.7646V17.3032H39.6996C40.0445 17.3032 40.3754 17.4275 40.6193 17.6488C40.8632 17.8702 41.0002 18.1703 41.0002 18.4833V24.7757Z" fill="#174C64"/>
<path d="M10.253 25.7413C7.26044 24.6249 4.75589 22.646 3.12579 20.11C1.49569 17.574 0.830622 14.6217 1.2332 11.7086C1.63578 8.79561 3.08363 6.08373 5.35336 3.99139C7.6231 1.89905 10.5886 0.542541 13.7923 0.131145C16.996 -0.28025 20.2599 0.276335 23.0804 1.71502C25.9009 3.15371 28.1213 5.39456 29.3989 8.09182C30.6766 10.7891 30.9405 13.7929 30.15 16.6398C29.3595 19.4866 27.5585 22.0184 25.0249 23.8444L23.4097 21.994C25.4935 20.4899 26.974 18.4056 27.6229 16.0625C28.2718 13.7193 28.0531 11.2476 27.0006 9.02842C25.948 6.80924 24.12 4.96591 21.7985 3.78271C19.477 2.59951 16.791 2.14217 14.1546 2.48122C11.5183 2.82027 9.07816 3.93688 7.2105 5.65884C5.34283 7.3808 4.15141 9.61246 3.81997 12.0096C3.48854 14.4068 4.03551 16.8363 5.37651 18.9235C6.71752 21.0107 8.77808 22.6396 11.2404 23.559L10.253 25.7413Z" fill="#174C64"/>
<path d="M16.5196 18.876H12.8273V16.5168H16.5196C16.8071 16.5168 17.0827 16.4132 17.2859 16.2288C17.4892 16.0444 17.6033 15.7943 17.6033 15.5335C17.6033 15.2727 17.4892 15.0226 17.2859 14.8382C17.0827 14.6538 16.8071 14.5502 16.5196 14.5502H15.197C14.22 14.5502 13.283 14.198 12.5922 13.5712C11.9013 12.9444 11.5132 12.0942 11.5132 11.2077C11.5132 10.3212 11.9013 9.47101 12.5922 8.84417C13.283 8.21733 14.22 7.86517 15.197 7.86517H18.8894V10.2244H15.197C14.9096 10.2244 14.634 10.328 14.4307 10.5124C14.2275 10.6968 14.1133 10.9469 14.1133 11.2077C14.1133 11.4685 14.2275 11.7186 14.4307 11.903C14.634 12.0874 14.9096 12.191 15.197 12.191H16.5148C17.4918 12.191 18.4288 12.5431 19.1196 13.17C19.8105 13.7968 20.1986 14.647 20.1986 15.5335C20.1986 16.42 19.8105 17.2701 19.1196 17.897C18.4288 18.5238 17.4918 18.876 16.5148 18.876H16.5196Z" fill="#174C64"/>
<path d="M14.561 6.68501H17.1612V9.04424H14.561V6.68501Z" fill="#174C64"/>
<path d="M14.561 17.6969H17.1612V20.0562H14.561V17.6969Z" fill="#174C64"/>
</g>
<defs>
<clipPath id="clip0">
<rect width="41" height="36" fill="white"/>
</clipPath>
</defs>
</svg>
