<svg xmlns="http://www.w3.org/2000/svg" width="42.532" height="47.442" viewBox="0 0 42.532 47.442"><defs><style>.a{fill:#f5f5f5;}.b{fill:#fff;}.c{fill:#e4e4e4;}.d{fill:#c9c9c9;}</style></defs><path class="a" d="M17.332,47.153C25.846,43.288,33.7,45.046,37.8,43.184s11.649-8.133,3.082-27.007S19.466-.207,14.952,1.841C-6.18,11.433,2.252,54,17.332,47.153Z" transform="translate(-2.269 -0.453)"/><path class="b" d="M30.028,34H11.778A2.029,2.029,0,0,1,9.75,31.972V17.778a2.029,2.029,0,0,1,2.028-2.028h18.25a2.029,2.029,0,0,1,2.028,2.028V31.972A2.029,2.029,0,0,1,30.028,34Z" transform="translate(0.364 4.929)"/><path class="a" d="M12.792,31.972V17.778a2.029,2.029,0,0,1,2.028-2.028H11.778A2.029,2.029,0,0,0,9.75,17.778V31.972A2.029,2.029,0,0,0,11.778,34h3.042A2.029,2.029,0,0,1,12.792,31.972Z" transform="translate(0.364 4.929)"/><g transform="translate(3.104 13.933)"><path class="c" d="M31.028,14.815a2.028,2.028,0,1,1,2.028-2.028A2.03,2.03,0,0,1,31.028,14.815Zm0-2.7a.676.676,0,1,0,.676.676A.676.676,0,0,0,31.028,12.112Z" transform="translate(4.033 -10.76)"/><path class="c" d="M0,0H1.352V2.7H0Z" transform="translate(0.24 3.857) rotate(-45)"/><path class="c" d="M0,0H2.7V1.352H0Z" transform="translate(0 10.309) rotate(-45)"/></g><path class="d" d="M30.292,35.277H12.042A3.044,3.044,0,0,1,9,32.236V18.042A3.044,3.044,0,0,1,12.042,15h18.25a3.044,3.044,0,0,1,3.042,3.042V32.236A3.044,3.044,0,0,1,30.292,35.277Zm-18.25-18.25a1.014,1.014,0,0,0-1.014,1.014V32.236a1.014,1.014,0,0,0,1.014,1.014h18.25a1.014,1.014,0,0,0,1.014-1.014V18.042a1.014,1.014,0,0,0-1.014-1.014Z" transform="translate(0.1 4.665)"/><path class="d" d="M28.222,19.18H26.195V14.111a6.083,6.083,0,0,0-12.167,0V19.18H12V14.111a8.111,8.111,0,0,1,16.222,0Z" transform="translate(1.155 1.499)"/></svg>