<svg width="14" height="12" viewBox="0 0 14 12" fill="none" xmlns="http://www.w3.org/2000/svg">
<path d="M0 0.857143C0 0.383756 0.391751 0 0.875 0H13.125C13.6082 0 14 0.383756 14 0.857143C14 1.33053 13.6082 1.71429 13.125 1.71429H0.875C0.391751 1.71429 0 1.33053 0 0.857143Z" fill="white"/>
<path d="M0 11.1429C0 10.6695 0.391751 10.2857 0.875 10.2857H13.125C13.6082 10.2857 14 10.6695 14 11.1429C14 11.6162 13.6082 12 13.125 12H0.875C0.391751 12 0 11.6162 0 11.1429Z" fill="white"/>
<path d="M0.875 5.14286C0.391751 5.14286 0 5.52661 0 6C0 6.47339 0.391751 6.85714 0.875 6.85714H7.875C8.35825 6.85714 8.75 6.47339 8.75 6C8.75 5.52661 8.35825 5.14286 7.875 5.14286H0.875Z" fill="white"/>
</svg>
