<svg width="7" height="7" viewBox="0 0 7 7" fill="none" xmlns="http://www.w3.org/2000/svg">
<g clip-path="url(#clip0)">
<path d="M6.52271 2.86364H4.13634V0.477273C4.13634 0.213817 3.92253 0 3.65907 0H3.34091C3.07745 0 2.86364 0.213817 2.86364 0.477273V2.86364H0.477273C0.213817 2.86364 0 3.07745 0 3.34091V3.65907C0 3.92253 0.213817 4.13634 0.477273 4.13634H2.86364V6.52271C2.86364 6.78616 3.07745 6.99998 3.34091 6.99998H3.65907C3.92253 6.99998 4.13634 6.78616 4.13634 6.52271V4.13634H6.52271C6.78616 4.13634 6.99998 3.92253 6.99998 3.65907V3.34091C6.99998 3.07745 6.78616 2.86364 6.52271 2.86364Z" fill="#E0F7F3"/>
</g>
<defs>
<clipPath id="clip0">
<rect width="7" height="7" fill="white"/>
</clipPath>
</defs>
</svg>
