<svg width="16" height="16" viewBox="0 0 16 16" fill="none" xmlns="http://www.w3.org/2000/svg">
<path d="M8 6C8.73638 6 9.33333 5.40305 9.33333 4.66667C9.33333 3.93029 8.73638 3.33333 8 3.33333C7.26362 3.33333 6.66667 3.93029 6.66667 4.66667C6.66667 5.40305 7.26362 6 8 6Z" fill="#1AE5BD"/>
<path d="M9.33333 8C9.33333 8.73638 8.73638 9.33333 8 9.33333C7.26362 9.33333 6.66667 8.73638 6.66667 8C6.66667 7.26362 7.26362 6.66667 8 6.66667C8.73638 6.66667 9.33333 7.26362 9.33333 8Z" fill="#1AE5BD"/>
<path d="M8 12.6667C8.73638 12.6667 9.33333 12.0697 9.33333 11.3333C9.33333 10.597 8.73638 10 8 10C7.26362 10 6.66667 10.597 6.66667 11.3333C6.66667 12.0697 7.26362 12.6667 8 12.6667Z" fill="#1AE5BD"/>
<path fill-rule="evenodd" clip-rule="evenodd" d="M16 8C16 12.4183 12.4183 16 8 16C3.58172 16 0 12.4183 0 8C0 3.58172 3.58172 0 8 0C12.4183 0 16 3.58172 16 8ZM14.6667 8C14.6667 11.6819 11.6819 14.6667 8 14.6667C4.3181 14.6667 1.33333 11.6819 1.33333 8C1.33333 4.3181 4.3181 1.33333 8 1.33333C11.6819 1.33333 14.6667 4.3181 14.6667 8Z" fill="#1AE5BD"/>
</svg>
