<svg width="4" height="18" viewBox="0 0 4 18" fill="none" xmlns="http://www.w3.org/2000/svg">
<path d="M2 4.5C0.895431 4.5 5.62588e-07 3.49264 6.16905e-07 2.25C6.71223e-07 1.00736 0.895431 -1.35705e-07 2 -8.74228e-08C3.10457 -3.91405e-08 4 1.00736 4 2.25C4 3.49264 3.10457 4.5 2 4.5Z" fill="#878787"/>
<path d="M2 11.25C0.895431 11.25 2.67536e-07 10.2426 3.21853e-07 9C3.76171e-07 7.75736 0.895431 6.75 2 6.75C3.10457 6.75 4 7.75736 4 9C4 10.2426 3.10457 11.25 2 11.25Z" fill="#878787"/>
<path d="M2.68014e-08 15.75C-2.75161e-08 16.9926 0.89543 18 2 18C3.10457 18 4 16.9926 4 15.75C4 14.5074 3.10457 13.5 2 13.5C0.895431 13.5 8.1119e-08 14.5074 2.68014e-08 15.75Z" fill="#878787"/>
</svg>
