<svg width="564" height="507" viewBox="0 0 564 507" fill="none" xmlns="http://www.w3.org/2000/svg">
<path d="M548.756 294.006C490.479 201.769 498.279 108.234 470.184 63.7849C442.088 19.3356 357.535 -57.8852 152.898 71.2597C-51.738 200.405 -2.3487 344.898 28.5432 393.795C173.193 622.74 651.973 457.375 548.756 293.983V294.006Z" fill="#F5F5F5"/>
<path d="M429 187V372.42C428.981 379.197 426.278 385.691 421.483 390.484C416.687 395.276 410.187 397.979 403.404 398H166.596C159.813 397.979 153.313 395.276 148.517 390.484C143.722 385.691 141.019 379.197 141 372.42V187H429Z" fill="#F3F3F1"/>
<path d="M429 161.504V187H141V161.504C141.019 154.748 143.722 148.273 148.517 143.494C153.313 138.715 159.813 136.021 166.596 136H403.404C410.187 136.021 416.687 138.715 421.483 143.494C426.278 148.273 428.981 154.748 429 161.504Z" fill="#E4E4E4"/>
<path d="M169.59 372.42V187H141V372.42C141.019 379.197 143.702 385.691 148.463 390.484C153.224 395.276 159.676 397.979 166.41 398H195C188.266 397.979 181.814 395.276 177.053 390.484C172.292 385.691 169.609 379.197 169.59 372.42V372.42Z" fill="#D5DBE1"/>
<path d="M195 136H166.41C159.676 136.021 153.224 138.715 148.463 143.494C143.702 148.273 141.019 154.748 141 161.504V187H169.59V161.504C169.609 154.748 172.292 148.273 177.053 143.494C181.814 138.715 188.266 136.021 195 136Z" fill="white"/>
<path d="M284.5 283C296.926 283 307 273.15 307 261C307 248.85 296.926 239 284.5 239C272.074 239 262 248.85 262 261C262 273.15 272.074 283 284.5 283Z" fill="#E4E4E4"/>
<path d="M314.12 315H255.88C252.48 314.999 249.114 315.663 245.973 316.955C242.832 318.248 239.978 320.142 237.574 322.531C235.171 324.919 233.265 327.755 231.965 330.876C230.665 333.996 229.998 337.341 230 340.718V360H340V340.718C340.002 337.341 339.335 333.996 338.035 330.876C336.735 327.755 334.829 324.919 332.426 322.531C330.022 320.142 327.168 318.248 324.027 316.955C320.886 315.663 317.52 314.999 314.12 315Z" fill="#E4E4E4"/>
<path d="M284.5 293C278.072 293 271.788 291.123 266.443 287.606C261.098 284.09 256.933 279.092 254.473 273.244C252.013 267.396 251.37 260.961 252.625 254.754C253.88 248.546 256.976 242.844 261.522 238.369C266.068 233.894 271.86 230.848 278.165 229.614C284.47 228.38 291.005 229.015 296.944 231.438C302.882 233.862 307.957 237.965 311.527 243.228C315.097 248.492 317.002 254.68 317 261.009C316.988 269.491 313.56 277.623 307.467 283.62C301.374 289.617 293.115 292.99 284.5 293V293ZM284.5 248.213C281.93 248.213 279.417 248.963 277.28 250.369C275.142 251.775 273.477 253.774 272.493 256.112C271.509 258.45 271.252 261.023 271.753 263.505C272.255 265.988 273.493 268.268 275.31 270.057C277.128 271.847 279.444 273.066 281.965 273.56C284.486 274.053 287.099 273.8 289.474 272.831C291.848 271.863 293.878 270.223 295.306 268.118C296.734 266.014 297.496 263.54 297.496 261.009C297.494 257.616 296.124 254.362 293.687 251.963C291.25 249.564 287.946 248.215 284.5 248.213Z" fill="#C9C9C9"/>
<path d="M348 360H328.953V340.59C328.946 336.301 327.271 332.19 324.295 329.157C321.319 326.124 317.284 324.417 313.075 324.41H255.925C251.716 324.417 247.682 326.124 244.705 329.157C241.729 332.19 240.054 336.301 240.047 340.59V360H221V340.59C221.007 331.153 224.689 322.105 231.237 315.432C237.785 308.759 246.664 305.007 255.925 305H313.075C322.336 305.007 331.215 308.759 337.763 315.432C344.311 322.105 347.993 331.153 348 340.59V360Z" fill="#C9C9C9"/>
<path d="M403.71 408H166.29C156.933 407.993 147.961 404.277 141.344 397.668C134.728 391.058 131.007 382.097 131 372.75V161.25C131.007 151.903 134.728 142.942 141.344 136.332C147.961 129.723 156.933 126.007 166.29 126H403.71C413.067 126.007 422.039 129.723 428.656 136.332C435.272 142.942 438.993 151.903 439 161.25V372.75C438.993 382.097 435.272 391.058 428.656 397.668C422.039 404.277 413.067 407.993 403.71 408V408ZM166.29 145.225C162.038 145.232 157.962 146.923 154.957 149.927C151.951 152.931 150.26 157.003 150.256 161.25V372.75C150.26 376.997 151.951 381.069 154.957 384.073C157.962 387.077 162.038 388.768 166.29 388.775H403.71C407.962 388.768 412.038 387.077 415.043 384.073C418.049 381.069 419.74 376.997 419.744 372.75V161.25C419.74 157.003 418.049 152.931 415.043 149.927C412.038 146.923 407.962 145.232 403.71 145.225H166.29Z" fill="#C9C9C9"/>
<path d="M141 177H429V197H141V177Z" fill="#C9C9C9"/>
<path d="M80 389H489V408H80V389Z" fill="#C9C9C9"/>
</svg>
