<svg width="12" height="12" viewBox="0 0 12 12" fill="none" xmlns="http://www.w3.org/2000/svg">
<path fill-rule="evenodd" clip-rule="evenodd" d="M11.0231 0.167765C10.7997 -0.0559217 10.4374 -0.0559218 10.2139 0.167765L9.7147 0.667438C9.07659 0.362312 8.28917 0.474273 7.76063 1.00332L1.69122 7.07864L4.92824 10.3188L10.9977 4.24349C11.5262 3.71444 11.638 2.92625 11.3332 2.28752L11.8324 1.78785C12.0559 1.56416 12.0559 1.20149 11.8324 0.977808L11.0231 0.167765ZM8.58087 5.04254L4.92824 8.69872L3.30973 7.07864L6.96236 3.42246L8.58087 5.04254ZM9.62134 4.00106L10.1884 3.43345C10.4119 3.20976 10.4119 2.84709 10.1884 2.6234L9.37914 1.81336C9.15567 1.58967 8.79336 1.58967 8.56989 1.81336L8.00283 2.38097L9.62134 4.00106Z" fill="#878787"/>
<path d="M0 12L1.21411 7.54454L4.4509 10.7849L0 12Z" fill="#878787"/>
</svg>
