<svg width="17" height="17" viewBox="0 0 17 17" fill="none" xmlns="http://www.w3.org/2000/svg">
<path fill-rule="evenodd" clip-rule="evenodd" d="M15.6161 0.237667C15.2995 -0.0792225 14.7863 -0.0792225 14.4697 0.237667L13.7625 0.945537C12.8585 0.513276 11.743 0.671887 10.9942 1.42137L2.39589 10.0281L6.98167 14.6183L15.58 6.01161C16.3288 5.26213 16.4872 4.14552 16.0554 3.24066L16.7626 2.53279C17.0791 2.2159 17.0791 1.70212 16.7626 1.38523L15.6161 0.237667ZM12.1562 7.1436L6.98167 12.3232L4.68878 10.0281L9.86334 4.84848L12.1562 7.1436ZM13.6302 5.66817L14.4336 4.86405C14.7501 4.54716 14.7501 4.03338 14.4336 3.71649L13.2871 2.56893C12.9705 2.25204 12.4573 2.25204 12.1407 2.56893L11.3373 3.37305L13.6302 5.66817Z" fill="#ECECEC"/>
<path d="M0 17L1.71998 10.6881L6.30545 15.2787L0 17Z" fill="#ECECEC"/>
</svg>
