<svg width="283" height="114" viewBox="0 0 283 114" fill="none" xmlns="http://www.w3.org/2000/svg">
<path fill-rule="evenodd" clip-rule="evenodd" d="M228.232 0L283 56.9039L228.415 114L210.159 95.032L233.541 70.5738L75.1771 71.1398C69.9338 86.8125 55.6645 98.0892 38.8355 98.168C17.4834 98.2679 0.0962949 80.3039 0.000398325 58.0442C-0.0954983 35.7844 17.1361 17.6583 38.4882 17.5583C55.3261 17.4795 69.6982 28.634 75.0698 44.2699L233.782 43.7026L210.037 19.0321L228.232 0ZM51.549 57.8028C51.517 50.3829 45.7213 44.3949 38.604 44.4282C31.4866 44.4615 25.7427 50.5036 25.7747 57.9235C25.8067 65.3434 31.6023 71.3314 38.7197 71.2981C45.8371 71.2648 51.581 65.2227 51.549 57.8028Z" fill="#174C64"/>
</svg>
