<svg width="35" height="29" viewBox="0 0 35 29" fill="none" xmlns="http://www.w3.org/2000/svg">
<g clip-path="url(#clip0)">
<path d="M27.888 27.801H5.208C4.88613 27.8009 4.56743 27.7373 4.27012 27.614C3.9728 27.4908 3.70267 27.3101 3.47517 27.0824C3.24767 26.8547 3.06724 26.5845 2.94418 26.287C2.82113 25.9896 2.75786 25.6709 2.758 25.349V12.476C2.75826 11.8263 3.01647 11.2033 3.47588 10.7439C3.93528 10.2845 4.5583 10.0263 5.208 10.026H27.888C28.2099 10.0259 28.5286 10.0891 28.826 10.2122C29.1235 10.3352 29.3937 10.5157 29.6214 10.7432C29.8491 10.9707 30.0297 11.2408 30.153 11.5381C30.2763 11.8354 30.3399 12.1541 30.34 12.476V25.349C30.3401 25.671 30.2768 25.9899 30.1536 26.2875C30.0304 26.585 29.8498 26.8554 29.6221 27.0831C29.3944 27.3108 29.124 27.4914 28.8265 27.6146C28.5289 27.7378 28.21 27.8011 27.888 27.801V27.801Z" fill="white"/>
<path d="M5.516 25.349V12.476C5.51613 12.1541 5.57965 11.8354 5.70295 11.5381C5.82625 11.2408 6.00689 10.9707 6.23458 10.7432C6.46227 10.5157 6.73254 10.3352 7.02996 10.2122C7.32738 10.0891 7.64613 10.0259 7.968 10.026H5.208C4.5583 10.0263 3.93528 10.2845 3.47588 10.7439C3.01647 11.2033 2.75826 11.8263 2.758 12.476V25.349C2.75786 25.6709 2.82113 25.9896 2.94418 26.287C3.06724 26.5845 3.24767 26.8547 3.47517 27.0824C3.70267 27.3101 3.9728 27.4908 4.27012 27.614C4.56743 27.7373 4.88613 27.8009 5.208 27.801H7.968C7.64596 27.8011 7.32705 27.7378 7.0295 27.6146C6.73195 27.4914 6.46159 27.3108 6.23388 27.0831C6.00616 26.8554 5.82555 26.585 5.70238 26.2875C5.5792 25.9899 5.51586 25.671 5.516 25.349V25.349Z" fill="#D5DBE1"/>
<path d="M26.544 6.71701L28.2778 4.98318L29.1447 5.8501L27.4109 7.58392L26.544 6.71701Z" fill="white"/>
<path d="M31.529 1.733L33.2628 -0.00082402L34.1297 0.866089L32.3959 2.59991L31.529 1.733Z" fill="white"/>
<path d="M31.52 6.05499L32.3869 5.18808L34.1208 6.92191L33.2538 7.78882L31.52 6.05499Z" fill="white"/>
<path d="M26.544 1.08301L27.4109 0.216095L29.1447 1.94992L28.2778 2.81683L26.544 1.08301Z" fill="white"/>
<path d="M1.839 4.81701C1.47528 4.81701 1.11973 4.70915 0.817307 4.50708C0.514885 4.30501 0.279176 4.0178 0.139986 3.68176C0.00079672 3.34573 -0.0356215 2.97597 0.0353367 2.61924C0.106295 2.26251 0.281442 1.93483 0.538631 1.67764C0.79582 1.42045 1.1235 1.2453 1.48023 1.17434C1.83696 1.10339 2.20672 1.1398 2.54276 1.27899C2.87879 1.41818 3.166 1.65389 3.36807 1.95631C3.57015 2.25874 3.678 2.61429 3.678 2.97801C3.67747 3.46558 3.48355 3.93303 3.13879 4.27779C2.79402 4.62256 2.32657 4.81648 1.839 4.81701V4.81701ZM1.839 2.36501C1.71776 2.36501 1.59924 2.40096 1.49844 2.46832C1.39763 2.53567 1.31906 2.63141 1.27266 2.74342C1.22627 2.85543 1.21413 2.97869 1.23778 3.0976C1.26143 3.21651 1.31981 3.32574 1.40554 3.41146C1.49127 3.49719 1.6005 3.55558 1.71941 3.57923C1.83832 3.60288 1.96157 3.59074 2.07359 3.54435C2.1856 3.49795 2.28133 3.41938 2.34869 3.31857C2.41605 3.21777 2.452 3.09925 2.452 2.97801C2.45174 2.81551 2.38707 2.65975 2.27217 2.54484C2.15726 2.42994 2.0015 2.36527 1.839 2.36501Z" fill="white"/>
<path d="M27.889 28.721H5.20999C4.31627 28.7199 3.45946 28.3644 2.8275 27.7325C2.19555 27.1005 1.84005 26.2437 1.83899 25.35V12.478C1.83978 11.5842 2.1952 10.7272 2.82721 10.0952C3.45922 9.4632 4.31619 9.10779 5.20999 9.10699H27.889C28.7828 9.10779 29.6398 9.4632 30.2718 10.0952C30.9038 10.7272 31.2592 11.5842 31.26 12.478V25.35C31.2589 26.2437 30.9034 27.1005 30.2715 27.7325C29.6395 28.3644 28.7827 28.7199 27.889 28.721V28.721ZM5.20999 10.946C4.80384 10.9465 4.41448 11.1081 4.12729 11.3953C3.84009 11.6825 3.67852 12.0718 3.67799 12.478V25.35C3.67852 25.7561 3.84009 26.1455 4.12729 26.4327C4.41448 26.7199 4.80384 26.8815 5.20999 26.882H27.889C28.2951 26.8815 28.6845 26.7199 28.9717 26.4327C29.2589 26.1455 29.4205 25.7561 29.421 25.35V12.478C29.4205 12.0718 29.2589 11.6825 28.9717 11.3953C28.6845 11.1081 28.2951 10.9465 27.889 10.946H5.20999Z" fill="#174C64"/>
<path d="M21.453 10.029H19.614V7.57399C19.6137 7.49291 19.5814 7.41523 19.5241 7.3579C19.4668 7.30057 19.3891 7.26825 19.308 7.26799H13.791C13.7099 7.26825 13.6322 7.30057 13.5749 7.3579C13.5176 7.41523 13.4853 7.49291 13.485 7.57399V10.029H11.646V7.57399C11.6468 7.00534 11.873 6.46021 12.2751 6.05812C12.6772 5.65602 13.2224 5.42978 13.791 5.42899H19.307C19.8756 5.42978 20.4208 5.65602 20.8229 6.05812C21.225 6.46021 21.4512 7.00534 21.452 7.57399L21.453 10.029Z" fill="#174C64"/>
<path d="M17.015 23.204H14.404V21.365H17.015C17.2181 21.365 17.413 21.2843 17.5566 21.1406C17.7003 20.997 17.781 20.8021 17.781 20.599C17.781 20.3958 17.7003 20.201 17.5566 20.0573C17.413 19.9137 17.2181 19.833 17.015 19.833H16.085C15.3941 19.833 14.7315 19.5585 14.243 19.07C13.7544 18.5815 13.48 17.9189 13.48 17.228C13.48 16.5371 13.7544 15.8745 14.243 15.386C14.7315 14.8974 15.3941 14.623 16.085 14.623H18.695V16.462H16.085C15.8818 16.462 15.687 16.5427 15.5433 16.6863C15.3997 16.83 15.319 17.0248 15.319 17.228C15.319 17.4311 15.3997 17.626 15.5433 17.7696C15.687 17.9133 15.8818 17.994 16.085 17.994H17.017C17.7079 17.994 18.3705 18.2684 18.859 18.757C19.3475 19.2455 19.622 19.9081 19.622 20.599C19.622 21.2899 19.3475 21.9525 18.859 22.441C18.3705 22.9295 17.7079 23.204 17.017 23.204H17.015Z" fill="#174C64"/>
<path d="M15.63 13.704H17.469V15.543H15.63V13.704Z" fill="#174C64"/>
<path d="M15.63 22.285H17.469V24.124H15.63V22.285Z" fill="#174C64"/>
</g>
<defs>
<clipPath id="clip0">
<rect width="34.128" height="28.721" fill="white"/>
</clipPath>
</defs>
</svg>
