<svg width="13" height="14" viewBox="0 0 13 14" fill="none" xmlns="http://www.w3.org/2000/svg">
<path fill-rule="evenodd" clip-rule="evenodd" d="M10.1111 2.21053V1.47368C10.1111 0.659791 9.46441 0 8.66667 0H4.33333C3.53559 0 2.88889 0.659791 2.88889 1.47368V2.21053H0.722222C0.32335 2.21053 0 2.54042 0 2.94737C0 3.35432 0.32335 3.68421 0.722222 3.68421H1.44444V11.7895C1.44444 13.0103 2.41449 14 3.61111 14H9.38889C10.5855 14 11.5556 13.0103 11.5556 11.7895V3.68421H12.2778C12.6767 3.68421 13 3.35432 13 2.94737C13 2.54042 12.6767 2.21053 12.2778 2.21053H10.1111ZM8.66667 1.47368H4.33333V2.21053H8.66667V1.47368ZM10.1111 3.68421H2.88889V11.7895C2.88889 12.1964 3.21224 12.5263 3.61111 12.5263H9.38889C9.78776 12.5263 10.1111 12.1964 10.1111 11.7895V3.68421Z" fill="#878787"/>
<path d="M4.33333 5.15789H5.77778V11.0526H4.33333V5.15789Z" fill="#878787"/>
<path d="M7.22222 5.15789H8.66667V11.0526H7.22222V5.15789Z" fill="#878787"/>
</svg>
