<svg width="15" height="17" viewBox="0 0 15 17" fill="none" xmlns="http://www.w3.org/2000/svg">
<path fill-rule="evenodd" clip-rule="evenodd" d="M11.6667 2.68421V1.78947C11.6667 0.801175 10.9205 0 10 0H5C4.07953 0 3.33333 0.801175 3.33333 1.78947V2.68421H0.833333C0.373096 2.68421 0 3.0848 0 3.57895C0 4.0731 0.373096 4.47368 0.833333 4.47368H1.66667V14.3158C1.66667 15.7982 2.78596 17 4.16667 17H10.8333C12.214 17 13.3333 15.7982 13.3333 14.3158V4.47368H14.1667C14.6269 4.47368 15 4.0731 15 3.57895C15 3.0848 14.6269 2.68421 14.1667 2.68421H11.6667ZM10 1.78947H5V2.68421H10V1.78947ZM11.6667 4.47368H3.33333V14.3158C3.33333 14.8099 3.70643 15.2105 4.16667 15.2105H10.8333C11.2936 15.2105 11.6667 14.8099 11.6667 14.3158V4.47368Z" fill="#ECECEC"/>
<path d="M5 6.26316H6.66667V13.4211H5V6.26316Z" fill="#ECECEC"/>
<path d="M8.33333 6.26316H10V13.4211H8.33333V6.26316Z" fill="#ECECEC"/>
</svg>
