<svg id="Layer_1" data-name="Layer 1" xmlns="http://www.w3.org/2000/svg" viewBox="0 0 3810.93 4908.52"><defs><style>.cls-1{fill:#11c2a6;}.cls-2,.cls-9{fill:#22947e;}.cls-3{fill:#acd9d0;}.cls-4{fill:#b8e8df;}.cls-5{fill:#8cd1c3;}.cls-6{fill:#f48787;}.cls-7{fill:#011721;}.cls-10,.cls-8{fill:#00cfa8;}.cls-10,.cls-9{fill-rule:evenodd;}.cls-11{fill:#042230;}.cls-12{fill:#fff;}.cls-13{fill:#05293c;}.cls-14{fill:#e5e5e5;}</style></defs><path class="cls-1" d="M3313,737.42,2638.91,62.34a93.59,93.59,0,0,0-132.43,0l-674.1,675.08-580.86,581.7c-58.88,59-17.12,159.7,66.22,159.7h311.9a93.57,93.57,0,0,1,93.57,93.57V4847a93.58,93.58,0,0,0,93.58,93.57H3328.6a93.58,93.58,0,0,0,93.58-93.57V1572.39a93.57,93.57,0,0,1,93.57-93.57h311.9c83.34,0,125.1-100.73,66.22-159.7Z" transform="translate(-535.79 -34.89)"/><path class="cls-2" d="M3309.23,3044.54l-24.74-24.78a3.44,3.44,0,0,0-4.86,0l-24.74,24.78-21.32,21.35a3.43,3.43,0,0,0,2.43,5.86h27.48a3.44,3.44,0,0,1,3.44,3.43V4398.24a3.43,3.43,0,0,0,3.43,3.44h23.41a3.44,3.44,0,0,0,3.44-3.44V3075.18a3.44,3.44,0,0,1,3.43-3.43h27.49a3.43,3.43,0,0,0,2.43-5.86Z" transform="translate(-535.79 -34.89)"/><path class="cls-3" d="M1611.89,1242l-14.81-14.83a2.05,2.05,0,0,0-2.9,0L1579.37,1242l-12.76,12.78a2.06,2.06,0,0,0,1.45,3.51h16.45a2.05,2.05,0,0,1,2.06,2v379a2.05,2.05,0,0,0,2,2.06h14a2.05,2.05,0,0,0,2-2.06v-379a2.05,2.05,0,0,1,2.06-2h16.45a2.06,2.06,0,0,0,1.45-3.51Z" transform="translate(-535.79 -34.89)"/><path class="cls-3" d="M2813.25,545.48l-14.81-14.83a2.06,2.06,0,0,0-2.91,0l-14.81,14.83L2768,558.26a2.06,2.06,0,0,0,1.46,3.51h16.45a2.05,2.05,0,0,1,2.05,2.05v791.81a2.06,2.06,0,0,0,2.06,2.06h14a2.06,2.06,0,0,0,2.06-2.06V563.82a2.05,2.05,0,0,1,2-2.05h16.45a2.06,2.06,0,0,0,1.46-3.51Z" transform="translate(-535.79 -34.89)"/><path class="cls-3" d="M3569.13,2482.42l-10.25-10.27a1.42,1.42,0,0,0-2,0l-10.25,10.27-8.84,8.85a1.43,1.43,0,0,0,1,2.43h11.39a1.41,1.41,0,0,1,1.42,1.42V3751.56A1.43,1.43,0,0,0,3553,3753h9.7a1.42,1.42,0,0,0,1.42-1.42V2495.12a1.42,1.42,0,0,1,1.43-1.42H3577a1.43,1.43,0,0,0,1-2.43Z" transform="translate(-535.79 -34.89)"/><path class="cls-2" d="M1415.68,2547.31l-14.8-14.83a2,2,0,0,0-2.91,0l-14.81,14.83-12.76,12.77a2.06,2.06,0,0,0,1.46,3.51h16.45a2.05,2.05,0,0,1,2,2.06v791.81a2.06,2.06,0,0,0,2.06,2.06h14a2.05,2.05,0,0,0,2-2.06V2565.65a2.06,2.06,0,0,1,2.06-2.06H1427a2.05,2.05,0,0,0,1.45-3.51Z" transform="translate(-535.79 -34.89)"/><path class="cls-3" d="M3104.24,2074.12,3069.13,2039a4.86,4.86,0,0,0-6.89,0l-35.12,35.16-30.25,30.29a4.87,4.87,0,0,0,3.45,8.32h39a4.87,4.87,0,0,1,4.88,4.88v1877.5a4.87,4.87,0,0,0,4.87,4.87h33.23a4.87,4.87,0,0,0,4.87-4.87V2117.61a4.87,4.87,0,0,1,4.87-4.88h39a4.87,4.87,0,0,0,3.45-8.32Z" transform="translate(-535.79 -34.89)"/><path class="cls-2" d="M2741,3108.39l-62-62.1a8.61,8.61,0,0,0-12.19,0l-62,62.1-53.43,53.5a8.61,8.61,0,0,0,6.09,14.69h68.88a8.61,8.61,0,0,1,8.61,8.61v824.09a38,38,0,0,0,37.95,37.95h0a38,38,0,0,0,37.94-37.95V3185.19a8.61,8.61,0,0,1,8.61-8.61h68.88a8.61,8.61,0,0,0,6.09-14.69Z" transform="translate(-535.79 -34.89)"/><path class="cls-4" d="M2445,4284.23s-215.54-71.3-575.78-128.91c0,0-114.68-18.19-323.86-197,0,0-764-831-1009.54-1127.94,0,0,112.17-183.23,327.42,32.76l84.89,82.61s-42.45-163.6,33.34-372.9c0,0,181.9,0,175.84,233.44,0,0,34.86,164.27,66.7,178.87,0,0,25.77-154.78,62.14-241,0,0,164.47,30.82,176.6,220.18,0,0,40.17,148.56,100.8,171.08l-15.16-76c24.91-36.47,110.85-38.82,200.09,40.93,0,0,433.26,458.16,776,568.62L2830.75,4319Z" transform="translate(-535.79 -34.89)"/><path class="cls-5" d="M1011.45,2576.84c-17.86-4-30-4-30-4-67.45,186.27-41.27,336.24-34.69,367L1059.35,3066C940,2901.15,1002.65,2614.08,1011.45,2576.84Z" transform="translate(-535.79 -34.89)"/><path class="cls-6" d="M1096.19,3107.31,1059.35,3066A267.49,267.49,0,0,0,1096.19,3107.31Z" transform="translate(-535.79 -34.89)"/><path class="cls-5" d="M2734.23,4310.33c-273.58-290.83-586.06-368.8-586.06-368.8C1884.41,3857.4,1213.66,3512,1213.66,3512L587.43,2780.67c-34.23,21.25-51.64,49.66-51.64,49.66,245.56,296.93,1009.54,1127.94,1009.54,1127.94,209.18,178.86,323.86,197,323.86,197,360.24,57.61,575.78,128.91,575.78,128.91Z" transform="translate(-535.79 -34.89)"/><path class="cls-5" d="M1286.12,2744.09c-32.78,77.7-56.93,211-61.39,236.63l86.81,100.16c-68.09-117.1,4-327.48,4.08-327.6C1298,2746.36,1286.12,2744.09,1286.12,2744.09Z" transform="translate(-535.79 -34.89)"/><path class="cls-6" d="M1656.6,3214.5l-13.7-11.95A98.16,98.16,0,0,0,1656.6,3214.5Z" transform="translate(-535.79 -34.89)"/><path class="cls-5" d="M1577.67,3039.16c-13,4.09-23.07,11.09-29.31,20.22l14.66,73.49,79.88,69.68C1600.54,3158.77,1582.83,3070.75,1577.67,3039.16Z" transform="translate(-535.79 -34.89)"/><path class="cls-7" d="M1253.54,3285.7a6.65,6.65,0,0,1-4.93-2.17L943.16,2950.22a6.69,6.69,0,1,1,9.86-9l305.45,333.31a6.69,6.69,0,0,1-4.93,11.21Z" transform="translate(-535.79 -34.89)"/><path class="cls-7" d="M1555.94,3335.88a6.68,6.68,0,0,1-4.7-1.93c-250.46-247.45-331.6-343.6-332.39-344.54a6.69,6.69,0,0,1,10.25-8.6c.79.94,81.67,96.75,331.55,343.63a6.69,6.69,0,0,1-4.71,11.44Z" transform="translate(-535.79 -34.89)"/><path class="cls-7" d="M647.12,2967.79a6.79,6.79,0,0,1-2.25-.39,6.69,6.69,0,0,1-4-8.55c20.36-56.95-92.64-141.66-93.78-142.51a6.68,6.68,0,0,1,8-10.74c5,3.71,122.08,91.57,98.41,157.75A6.69,6.69,0,0,1,647.12,2967.79Z" transform="translate(-535.79 -34.89)"/><path class="cls-7" d="M1766.64,3326.79a6.66,6.66,0,0,1-4.76-2c-118.05-119.64-201.58-183.5-202.41-184.13a6.69,6.69,0,0,1,8.1-10.66c.83.64,85.12,65.09,203.83,185.38a6.68,6.68,0,0,1-.07,9.46A6.61,6.61,0,0,1,1766.64,3326.79Z" transform="translate(-535.79 -34.89)"/><path class="cls-8" d="M1914.84,4940.52s147.91-380.85-218.91-624.6c0,0-62.25,80.17-44.1,116.23,0,0-290.51-474.33-665.39-497.67,0,0-99.58,252,20.5,460.07,0,0-82,28.12-114.22-82.39,0,0-55.65,282.85,114.22,536.12,0,0-84.57,16.46-90.06,92.24Z" transform="translate(-535.79 -34.89)"/><path class="cls-9" d="M986.44,3934.48s-99.58,252,20.5,460.07c0,0-82,28.12-114.22-82.39,0,0-55.65,282.85,114.22,536.12,0,0-84.57,16.46-90.06,92.24h998C866.54,4738.45,986.44,3934.48,986.44,3934.48Z" transform="translate(-535.79 -34.89)"/><path class="cls-2" d="M2734.23,4032.87s133.73-489,940.41-719.66l2.81,191.09,103.64-230.89s282-57.66,565.63-8.31c0,0-61.6,490.21-443.78,1015.71L3588.42,4209l232,180.08s-259.1,577.21-1047,550.57Z" transform="translate(-535.79 -34.89)"/><path class="cls-10" d="M3781.09,3273.41,3677.45,3504.3l-2.81-191.09c-806.68,230.69-940.41,719.66-940.41,719.66l12.2,281.87C4065.19,4232.86,4346.72,3265.1,4346.72,3265.1,4063.12,3215.75,3781.09,3273.41,3781.09,3273.41Z" transform="translate(-535.79 -34.89)"/><path class="cls-11" d="M2080.42,1938s88.36,135.69,185.14,202l10.52,61h-51.55s-112.55-163-144.11-246.14Z" transform="translate(-535.79 -34.89)"/><path class="cls-12" d="M2094,1988.32c-31.91-107.69-25.26-223.75,22.22-325.54q3-6.43,6.26-13c64.18-129.38,122-287.17,166.2-481.77l-35-12S2096.55,1631.55,1694,2121.33a48.4,48.4,0,0,0-8.18,46.09c13.81,40.87,60.15,120.56,215.7,200.78l-3-57.42s-117.6-115.41-119-142.06l106.59-116.41s15.74,346.21,23.84,461.44c6.58,93.5,12.72,142.66,68.85,368.56-74.32,39.18-148.79,69.73-148.79,69.73l-1.75,60.31c61.18-8.34,129.51-17,176.83-30.2A3965.33,3965.33,0,0,0,2162.47,3438h40s-5.92-252.49-21.57-524.44c75.43-40.07,107.83-75.14,107.83-75.14-15.18-138.69-40.3-265.89-64.44-367.13C2196,2352.93,2134.21,2123.92,2094,1988.32Z" transform="translate(-535.79 -34.89)"/><polygon class="cls-12" points="1388.32 1771.54 1382.29 1741.48 1357.39 1727.45 1359.14 1760.53 1383.93 1778.28 1388.32 1771.54"/><path class="cls-7" d="M1893.18,1762.34s-17.62-37.48-61.06-16.47a10.19,10.19,0,0,0-5.29,6.49c-3,10.67-8.67,38.67,3.77,65.2,0,0,27.18,45,70.91,23.27l18.21-27.66S1897.92,1793.9,1893.18,1762.34Z" transform="translate(-535.79 -34.89)"/><path class="cls-13" d="M1828.32,3012.35c61.18-8.34,129.51-17,176.83-30.2A3965.33,3965.33,0,0,0,2162.47,3438h40s-5.92-252.49-21.57-524.44c75.43-40.07,107.83-75.14,107.83-75.14-15.18-138.69-40.3-265.89-64.44-367.13-6.45-27.09-14.69-60-24-96.23-195.74-27.87-291.61,118.2-291.61,118.2h0c.47,7.41.93,14.29,1.36,20.47,6.58,93.5,12.72,142.66,68.85,368.56-74.32,39.18-148.79,69.73-148.79,69.73Z" transform="translate(-535.79 -34.89)"/><path class="cls-12" d="M1978.87,2889a6.68,6.68,0,0,1-3.44-12.42l116.68-69.82a40,40,0,0,0,19.07-40.44l-16.33-107.8a6.69,6.69,0,1,1,13.22-2l16.33,107.8a53.25,53.25,0,0,1-25.42,53.92L1982.3,2888A6.61,6.61,0,0,1,1978.87,2889Z" transform="translate(-535.79 -34.89)"/><path class="cls-7" d="M2253.66,1156s9.79-50.06,22.42-75.3c0,0,31.53,14.62,12.62,89.94Z" transform="translate(-535.79 -34.89)"/><path class="cls-12" d="M1830.07,2952l-11.48-2.42c-15.85-3.33-25.1,9.8-28.84,25.56l-35.2,101.26c-2.63,11,4,15.79,12.67,8.4l61.1-72.49Z" transform="translate(-535.79 -34.89)"/><path class="cls-12" d="M2162.47,3438v24a93.3,93.3,0,0,0,21.69,59.8l27.63,40.61c8,9.56,23.45,2.08,20.9-10.12L2202.44,3438Z" transform="translate(-535.79 -34.89)"/><path class="cls-11" d="M2288.7,2838.44c-15.18-138.69-40.3-265.89-64.44-367.13-6.45-27.09-14.69-60-24-96.23-195.74-27.87-291.61,118.2-291.61,118.2.47,7.41.93,14.29,1.36,20.47,2.44,34.66,4.83,63.25,9.71,97,0,0,136.51-117,231.63-31.28,20.27,18.27,33.73,42.78,40.55,69.19a703.38,703.38,0,0,1,14.84,74.07,117.68,117.68,0,0,1-40.64,106.85c-59.43,50.11-174,128.47-336,158.24h-1l-.71,24.54c61.18-8.34,129.51-17,176.83-30.2,0,0,105.11-24.77,175.72-68.57C2256.3,2873.51,2288.7,2838.44,2288.7,2838.44Z" transform="translate(-535.79 -34.89)"/><path class="cls-14" d="M2122.5,1649.79S1911.26,1980,1904.32,2419.74v0c2,36.1,3.88,67.84,5.49,91l92.25-31.05,213.08-45.83c-30.9-124.55-84.83-323.14-121.12-445.59-31.91-107.69-25.26-223.75,22.22-325.54Q2119.26,1656.35,2122.5,1649.79Z" transform="translate(-535.79 -34.89)"/><path class="cls-12" d="M1858.14,3015a6.68,6.68,0,0,1-6.69-6.69v-38a6.69,6.69,0,1,1,13.38,0v38A6.68,6.68,0,0,1,1858.14,3015Z" transform="translate(-535.79 -34.89)"/><path class="cls-12" d="M2207.17,3410.52h-38.39a6.69,6.69,0,0,1,0-13.37h38.39a6.69,6.69,0,1,1,0,13.37Z" transform="translate(-535.79 -34.89)"/><path class="cls-7" d="M1902.34,2390a6.7,6.7,0,0,1-6.68-6.35l-5.89-115a6.7,6.7,0,0,1,6.34-7,6.88,6.88,0,0,1,7,6.35l5.9,115a6.7,6.7,0,0,1-6.35,7Z" transform="translate(-535.79 -34.89)"/><path class="cls-3" d="M3619,4940.52s-185.3-888.27-573.17-1188.4c0,0-252.57-313.63-757.53-196.61,0,0-291.23,46.69-445.85,0l-425.94-124.75s-207.67-62.15-283.46,153.15c0,0,910,288.15,1155.25,495.62,0,0,72.2,74.51,156.69,204.7,0,0,282,189.42,282,656.29H3619Z" transform="translate(-535.79 -34.89)"/><path class="cls-7" d="M2027.44,3583.12c-66.7,0-134.27-5.3-186.94-21.2l-425.9-124.75c-1.28-.37-127.72-36.69-215.58,50.16a227.59,227.59,0,0,0-37.25,49.11,6.69,6.69,0,1,1-11.62-6.63,240.82,240.82,0,0,1,39.47-52c93.59-92.53,227.44-53.87,228.78-53.48l425.91,124.76c151.41,45.72,440,.28,442.91-.2a6.75,6.75,0,0,1,7.66,5.56,6.68,6.68,0,0,1-5.54,7.66C2281.47,3563.38,2156.14,3583.12,2027.44,3583.12Z" transform="translate(-535.79 -34.89)"/><path class="cls-5" d="M1163.07,3521.67a296.51,296.51,0,0,0-30,62.24s910,288.15,1155.25,495.62c0,0,72.2,74.51,156.69,204.7,0,0,282,189.42,282,656.29h338.76C2842.82,3907.06,1451.76,3579,1163.07,3521.67Z" transform="translate(-535.79 -34.89)"/><path class="cls-7" d="M2288.27,4086.22a6.66,6.66,0,0,1-4.31-1.58c-186.43-157.72-768.73-365.34-1010.44-447.28-15.51-5.25-30-10.13-43.38-14.59a6.69,6.69,0,0,1,4.23-12.69c13.39,4.48,27.91,9.36,43.44,14.61C1579,3726.78,2111.2,3921,2292.59,4074.43a6.68,6.68,0,0,1-4.32,11.79Z" transform="translate(-535.79 -34.89)"/><path class="cls-7" d="M1353.46,3664.42a6.69,6.69,0,0,1-6-3.7c-.65-1.28-65.69-127.11-191.17-120.92a6.58,6.58,0,0,1-7-6.32,6.68,6.68,0,0,1,6.33-7c134-7.26,203.15,126.93,203.83,128.29a6.7,6.7,0,0,1-3,9A6.88,6.88,0,0,1,1353.46,3664.42Z" transform="translate(-535.79 -34.89)"/><path class="cls-2" d="M3471.66,4943.41s-43.52-103.94,64.42-170.46c0,0,18.31,21.88,13,31.72,0,0,85.48-129.44,195.78-135.81,0,0,29.3,68.76-6,125.55,0,0,24.13,7.68,33.6-22.48,0,0,16.38,77.19-33.6,146.31,0,0,24.88,4.49,26.49,25.17Z" transform="translate(-535.79 -34.89)"/></svg>